<?xml version="1.0" encoding="utf-8" standalone="no"?>
<!DOCTYPE svg PUBLIC "-//W3C//DTD SVG 1.1//EN"
  "http://www.w3.org/Graphics/SVG/1.1/DTD/svg11.dtd">
<svg xmlns:xlink="http://www.w3.org/1999/xlink" width="600.446875pt" height="389.610625pt" viewBox="0 0 600.446875 389.610625" xmlns="http://www.w3.org/2000/svg" version="1.1">
 <metadata>
  <rdf:RDF xmlns:dc="http://purl.org/dc/elements/1.1/" xmlns:cc="http://creativecommons.org/ns#" xmlns:rdf="http://www.w3.org/1999/02/22-rdf-syntax-ns#">
   <cc:Work>
    <dc:type rdf:resource="http://purl.org/dc/dcmitype/StillImage"/>
    <dc:date>2026-01-26T14:15:08.407855</dc:date>
    <dc:format>image/svg+xml</dc:format>
    <dc:creator>
     <cc:Agent>
      <dc:title>Matplotlib v3.10.8, https://matplotlib.org/</dc:title>
     </cc:Agent>
    </dc:creator>
   </cc:Work>
  </rdf:RDF>
 </metadata>
 <defs>
  <style type="text/css">*{stroke-linejoin: round; stroke-linecap: butt}</style>
 </defs>
 <g id="figure_1">
  <g id="patch_1">
   <path d="M 0 389.610625
L 600.446875 389.610625
L 600.446875 0
L 0 0
z
" style="fill: #ffffff"/>
  </g>
  <g id="axes_1">
   <g id="patch_2">
    <path d="M 35.246875 356.62
L 593.246875 356.62
L 593.246875 23.98
L 35.246875 23.98
z
" style="fill: #ffffff"/>
   </g>
   <g id="matplotlib.axis_1">
    <g id="xtick_1">
     <g id="line2d_1">
      <path d="M 60.610511 356.62
L 60.610511 23.98
" clip-path="url(#pbb54311557)" style="fill: none; stroke: #cccccc; stroke-width: 0.8; stroke-linecap: round"/>
     </g>
     <g id="line2d_2"/>
     <g id="text_1">
      <!-- 0.0 -->
      <g style="fill: #262626" transform="translate(53.660511 367.277813) scale(0.1 -0.1)">
       <defs>
        <path id="ArialMT-30" d="M 266 2259
Q 266 3072 433 3567
Q 600 4063 929 4331
Q 1259 4600 1759 4600
Q 2128 4600 2406 4451
Q 2684 4303 2865 4023
Q 3047 3744 3150 3342
Q 3253 2941 3253 2259
Q 3253 1453 3087 958
Q 2922 463 2592 192
Q 2263 -78 1759 -78
Q 1097 -78 719 397
Q 266 969 266 2259
z
M 844 2259
Q 844 1131 1108 757
Q 1372 384 1759 384
Q 2147 384 2411 759
Q 2675 1134 2675 2259
Q 2675 3391 2411 3762
Q 2147 4134 1753 4134
Q 1366 4134 1134 3806
Q 844 3388 844 2259
z
" transform="scale(0.015625)"/>
        <path id="ArialMT-2e" d="M 581 0
L 581 641
L 1222 641
L 1222 0
L 581 0
z
" transform="scale(0.015625)"/>
       </defs>
       <use xlink:href="#ArialMT-30"/>
       <use xlink:href="#ArialMT-2e" transform="translate(55.615234 0)"/>
       <use xlink:href="#ArialMT-30" transform="translate(83.398438 0)"/>
      </g>
     </g>
    </g>
    <g id="xtick_2">
     <g id="line2d_3">
      <path d="M 124.019602 356.62
L 124.019602 23.98
" clip-path="url(#pbb54311557)" style="fill: none; stroke: #cccccc; stroke-width: 0.8; stroke-linecap: round"/>
     </g>
     <g id="line2d_4"/>
     <g id="text_2">
      <!-- 0.5 -->
      <g style="fill: #262626" transform="translate(117.069602 367.277813) scale(0.1 -0.1)">
       <defs>
        <path id="ArialMT-35" d="M 266 1200
L 856 1250
Q 922 819 1161 601
Q 1400 384 1738 384
Q 2144 384 2425 690
Q 2706 997 2706 1503
Q 2706 1984 2436 2262
Q 2166 2541 1728 2541
Q 1456 2541 1237 2417
Q 1019 2294 894 2097
L 366 2166
L 809 4519
L 3088 4519
L 3088 3981
L 1259 3981
L 1013 2750
Q 1425 3038 1878 3038
Q 2478 3038 2890 2622
Q 3303 2206 3303 1553
Q 3303 931 2941 478
Q 2500 -78 1738 -78
Q 1113 -78 717 272
Q 322 622 266 1200
z
" transform="scale(0.015625)"/>
       </defs>
       <use xlink:href="#ArialMT-30"/>
       <use xlink:href="#ArialMT-2e" transform="translate(55.615234 0)"/>
       <use xlink:href="#ArialMT-35" transform="translate(83.398438 0)"/>
      </g>
     </g>
    </g>
    <g id="xtick_3">
     <g id="line2d_5">
      <path d="M 187.428693 356.62
L 187.428693 23.98
" clip-path="url(#pbb54311557)" style="fill: none; stroke: #cccccc; stroke-width: 0.8; stroke-linecap: round"/>
     </g>
     <g id="line2d_6"/>
     <g id="text_3">
      <!-- 1.0 -->
      <g style="fill: #262626" transform="translate(180.478693 367.277813) scale(0.1 -0.1)">
       <defs>
        <path id="ArialMT-31" d="M 2384 0
L 1822 0
L 1822 3584
Q 1619 3391 1289 3197
Q 959 3003 697 2906
L 697 3450
Q 1169 3672 1522 3987
Q 1875 4303 2022 4600
L 2384 4600
L 2384 0
z
" transform="scale(0.015625)"/>
       </defs>
       <use xlink:href="#ArialMT-31"/>
       <use xlink:href="#ArialMT-2e" transform="translate(55.615234 0)"/>
       <use xlink:href="#ArialMT-30" transform="translate(83.398438 0)"/>
      </g>
     </g>
    </g>
    <g id="xtick_4">
     <g id="line2d_7">
      <path d="M 250.837784 356.62
L 250.837784 23.98
" clip-path="url(#pbb54311557)" style="fill: none; stroke: #cccccc; stroke-width: 0.8; stroke-linecap: round"/>
     </g>
     <g id="line2d_8"/>
     <g id="text_4">
      <!-- 1.5 -->
      <g style="fill: #262626" transform="translate(243.887784 367.277813) scale(0.1 -0.1)">
       <use xlink:href="#ArialMT-31"/>
       <use xlink:href="#ArialMT-2e" transform="translate(55.615234 0)"/>
       <use xlink:href="#ArialMT-35" transform="translate(83.398438 0)"/>
      </g>
     </g>
    </g>
    <g id="xtick_5">
     <g id="line2d_9">
      <path d="M 314.246875 356.62
L 314.246875 23.98
" clip-path="url(#pbb54311557)" style="fill: none; stroke: #cccccc; stroke-width: 0.8; stroke-linecap: round"/>
     </g>
     <g id="line2d_10"/>
     <g id="text_5">
      <!-- 2.0 -->
      <g style="fill: #262626" transform="translate(307.296875 367.277813) scale(0.1 -0.1)">
       <defs>
        <path id="ArialMT-32" d="M 3222 541
L 3222 0
L 194 0
Q 188 203 259 391
Q 375 700 629 1000
Q 884 1300 1366 1694
Q 2113 2306 2375 2664
Q 2638 3022 2638 3341
Q 2638 3675 2398 3904
Q 2159 4134 1775 4134
Q 1369 4134 1125 3890
Q 881 3647 878 3216
L 300 3275
Q 359 3922 746 4261
Q 1134 4600 1788 4600
Q 2447 4600 2831 4234
Q 3216 3869 3216 3328
Q 3216 3053 3103 2787
Q 2991 2522 2730 2228
Q 2469 1934 1863 1422
Q 1356 997 1212 845
Q 1069 694 975 541
L 3222 541
z
" transform="scale(0.015625)"/>
       </defs>
       <use xlink:href="#ArialMT-32"/>
       <use xlink:href="#ArialMT-2e" transform="translate(55.615234 0)"/>
       <use xlink:href="#ArialMT-30" transform="translate(83.398438 0)"/>
      </g>
     </g>
    </g>
    <g id="xtick_6">
     <g id="line2d_11">
      <path d="M 377.655966 356.62
L 377.655966 23.98
" clip-path="url(#pbb54311557)" style="fill: none; stroke: #cccccc; stroke-width: 0.8; stroke-linecap: round"/>
     </g>
     <g id="line2d_12"/>
     <g id="text_6">
      <!-- 2.5 -->
      <g style="fill: #262626" transform="translate(370.705966 367.277813) scale(0.1 -0.1)">
       <use xlink:href="#ArialMT-32"/>
       <use xlink:href="#ArialMT-2e" transform="translate(55.615234 0)"/>
       <use xlink:href="#ArialMT-35" transform="translate(83.398438 0)"/>
      </g>
     </g>
    </g>
    <g id="xtick_7">
     <g id="line2d_13">
      <path d="M 441.065057 356.62
L 441.065057 23.98
" clip-path="url(#pbb54311557)" style="fill: none; stroke: #cccccc; stroke-width: 0.8; stroke-linecap: round"/>
     </g>
     <g id="line2d_14"/>
     <g id="text_7">
      <!-- 3.0 -->
      <g style="fill: #262626" transform="translate(434.115057 367.277813) scale(0.1 -0.1)">
       <defs>
        <path id="ArialMT-33" d="M 269 1209
L 831 1284
Q 928 806 1161 595
Q 1394 384 1728 384
Q 2125 384 2398 659
Q 2672 934 2672 1341
Q 2672 1728 2419 1979
Q 2166 2231 1775 2231
Q 1616 2231 1378 2169
L 1441 2663
Q 1497 2656 1531 2656
Q 1891 2656 2178 2843
Q 2466 3031 2466 3422
Q 2466 3731 2256 3934
Q 2047 4138 1716 4138
Q 1388 4138 1169 3931
Q 950 3725 888 3313
L 325 3413
Q 428 3978 793 4289
Q 1159 4600 1703 4600
Q 2078 4600 2393 4439
Q 2709 4278 2876 4000
Q 3044 3722 3044 3409
Q 3044 3113 2884 2869
Q 2725 2625 2413 2481
Q 2819 2388 3044 2092
Q 3269 1797 3269 1353
Q 3269 753 2831 336
Q 2394 -81 1725 -81
Q 1122 -81 723 278
Q 325 638 269 1209
z
" transform="scale(0.015625)"/>
       </defs>
       <use xlink:href="#ArialMT-33"/>
       <use xlink:href="#ArialMT-2e" transform="translate(55.615234 0)"/>
       <use xlink:href="#ArialMT-30" transform="translate(83.398438 0)"/>
      </g>
     </g>
    </g>
    <g id="xtick_8">
     <g id="line2d_15">
      <path d="M 504.474148 356.62
L 504.474148 23.98
" clip-path="url(#pbb54311557)" style="fill: none; stroke: #cccccc; stroke-width: 0.8; stroke-linecap: round"/>
     </g>
     <g id="line2d_16"/>
     <g id="text_8">
      <!-- 3.5 -->
      <g style="fill: #262626" transform="translate(497.524148 367.277813) scale(0.1 -0.1)">
       <use xlink:href="#ArialMT-33"/>
       <use xlink:href="#ArialMT-2e" transform="translate(55.615234 0)"/>
       <use xlink:href="#ArialMT-35" transform="translate(83.398438 0)"/>
      </g>
     </g>
    </g>
    <g id="xtick_9">
     <g id="line2d_17">
      <path d="M 567.883239 356.62
L 567.883239 23.98
" clip-path="url(#pbb54311557)" style="fill: none; stroke: #cccccc; stroke-width: 0.8; stroke-linecap: round"/>
     </g>
     <g id="line2d_18"/>
     <g id="text_9">
      <!-- 4.0 -->
      <g style="fill: #262626" transform="translate(560.933239 367.277813) scale(0.1 -0.1)">
       <defs>
        <path id="ArialMT-34" d="M 2069 0
L 2069 1097
L 81 1097
L 81 1613
L 2172 4581
L 2631 4581
L 2631 1613
L 3250 1613
L 3250 1097
L 2631 1097
L 2631 0
L 2069 0
z
M 2069 1613
L 2069 3678
L 634 1613
L 2069 1613
z
" transform="scale(0.015625)"/>
       </defs>
       <use xlink:href="#ArialMT-34"/>
       <use xlink:href="#ArialMT-2e" transform="translate(55.615234 0)"/>
       <use xlink:href="#ArialMT-30" transform="translate(83.398438 0)"/>
      </g>
     </g>
    </g>
    <g id="text_10">
     <!-- t -->
     <g style="fill: #262626" transform="translate(312.857812 380.423125) scale(0.1 -0.1)">
      <defs>
       <path id="ArialMT-74" d="M 1650 503
L 1731 6
Q 1494 -44 1306 -44
Q 1000 -44 831 53
Q 663 150 594 308
Q 525 466 525 972
L 525 2881
L 113 2881
L 113 3319
L 525 3319
L 525 4141
L 1084 4478
L 1084 3319
L 1650 3319
L 1650 2881
L 1084 2881
L 1084 941
Q 1084 700 1114 631
Q 1144 563 1211 522
Q 1278 481 1403 481
Q 1497 481 1650 503
z
" transform="scale(0.015625)"/>
      </defs>
      <use xlink:href="#ArialMT-74"/>
     </g>
    </g>
   </g>
   <g id="matplotlib.axis_2">
    <g id="ytick_1">
     <g id="line2d_19">
      <path d="M 35.246875 334.214505
L 593.246875 334.214505
" clip-path="url(#pbb54311557)" style="fill: none; stroke: #cccccc; stroke-width: 0.8; stroke-linecap: round"/>
     </g>
     <g id="line2d_20"/>
     <g id="text_11">
      <!-- −3 -->
      <g style="fill: #262626" transform="translate(20.345313 337.793411) scale(0.1 -0.1)">
       <defs>
        <path id="ArialMT-2212" d="M 3381 1997
L 356 1997
L 356 2522
L 3381 2522
L 3381 1997
z
" transform="scale(0.015625)"/>
       </defs>
       <use xlink:href="#ArialMT-2212"/>
       <use xlink:href="#ArialMT-33" transform="translate(58.398438 0)"/>
      </g>
     </g>
    </g>
    <g id="ytick_2">
     <g id="line2d_21">
      <path d="M 35.246875 297.10803
L 593.246875 297.10803
" clip-path="url(#pbb54311557)" style="fill: none; stroke: #cccccc; stroke-width: 0.8; stroke-linecap: round"/>
     </g>
     <g id="line2d_22"/>
     <g id="text_12">
      <!-- −2 -->
      <g style="fill: #262626" transform="translate(20.345313 300.686936) scale(0.1 -0.1)">
       <use xlink:href="#ArialMT-2212"/>
       <use xlink:href="#ArialMT-32" transform="translate(58.398438 0)"/>
      </g>
     </g>
    </g>
    <g id="ytick_3">
     <g id="line2d_23">
      <path d="M 35.246875 260.001555
L 593.246875 260.001555
" clip-path="url(#pbb54311557)" style="fill: none; stroke: #cccccc; stroke-width: 0.8; stroke-linecap: round"/>
     </g>
     <g id="line2d_24"/>
     <g id="text_13">
      <!-- −1 -->
      <g style="fill: #262626" transform="translate(20.345313 263.580462) scale(0.1 -0.1)">
       <use xlink:href="#ArialMT-2212"/>
       <use xlink:href="#ArialMT-31" transform="translate(58.398438 0)"/>
      </g>
     </g>
    </g>
    <g id="ytick_4">
     <g id="line2d_25">
      <path d="M 35.246875 222.89508
L 593.246875 222.89508
" clip-path="url(#pbb54311557)" style="fill: none; stroke: #cccccc; stroke-width: 0.8; stroke-linecap: round"/>
     </g>
     <g id="line2d_26"/>
     <g id="text_14">
      <!-- 0 -->
      <g style="fill: #262626" transform="translate(26.185938 226.473987) scale(0.1 -0.1)">
       <use xlink:href="#ArialMT-30"/>
      </g>
     </g>
    </g>
    <g id="ytick_5">
     <g id="line2d_27">
      <path d="M 35.246875 185.788606
L 593.246875 185.788606
" clip-path="url(#pbb54311557)" style="fill: none; stroke: #cccccc; stroke-width: 0.8; stroke-linecap: round"/>
     </g>
     <g id="line2d_28"/>
     <g id="text_15">
      <!-- 1 -->
      <g style="fill: #262626" transform="translate(26.185938 189.367512) scale(0.1 -0.1)">
       <use xlink:href="#ArialMT-31"/>
      </g>
     </g>
    </g>
    <g id="ytick_6">
     <g id="line2d_29">
      <path d="M 35.246875 148.682131
L 593.246875 148.682131
" clip-path="url(#pbb54311557)" style="fill: none; stroke: #cccccc; stroke-width: 0.8; stroke-linecap: round"/>
     </g>
     <g id="line2d_30"/>
     <g id="text_16">
      <!-- 2 -->
      <g style="fill: #262626" transform="translate(26.185938 152.261037) scale(0.1 -0.1)">
       <use xlink:href="#ArialMT-32"/>
      </g>
     </g>
    </g>
    <g id="ytick_7">
     <g id="line2d_31">
      <path d="M 35.246875 111.575656
L 593.246875 111.575656
" clip-path="url(#pbb54311557)" style="fill: none; stroke: #cccccc; stroke-width: 0.8; stroke-linecap: round"/>
     </g>
     <g id="line2d_32"/>
     <g id="text_17">
      <!-- 3 -->
      <g style="fill: #262626" transform="translate(26.185938 115.154562) scale(0.1 -0.1)">
       <use xlink:href="#ArialMT-33"/>
      </g>
     </g>
    </g>
    <g id="ytick_8">
     <g id="line2d_33">
      <path d="M 35.246875 74.469181
L 593.246875 74.469181
" clip-path="url(#pbb54311557)" style="fill: none; stroke: #cccccc; stroke-width: 0.8; stroke-linecap: round"/>
     </g>
     <g id="line2d_34"/>
     <g id="text_18">
      <!-- 4 -->
      <g style="fill: #262626" transform="translate(26.185938 78.048088) scale(0.1 -0.1)">
       <use xlink:href="#ArialMT-34"/>
      </g>
     </g>
    </g>
    <g id="ytick_9">
     <g id="line2d_35">
      <path d="M 35.246875 37.362707
L 593.246875 37.362707
" clip-path="url(#pbb54311557)" style="fill: none; stroke: #cccccc; stroke-width: 0.8; stroke-linecap: round"/>
     </g>
     <g id="line2d_36"/>
     <g id="text_19">
      <!-- 5 -->
      <g style="fill: #262626" transform="translate(26.185938 40.941613) scale(0.1 -0.1)">
       <use xlink:href="#ArialMT-35"/>
      </g>
     </g>
    </g>
    <g id="text_20">
     <!-- V -->
     <g style="fill: #262626" transform="translate(14.357813 193.635156) rotate(-90) scale(0.1 -0.1)">
      <defs>
       <path id="ArialMT-56" d="M 1803 0
L 28 4581
L 684 4581
L 1875 1253
Q 2019 853 2116 503
Q 2222 878 2363 1253
L 3600 4581
L 4219 4581
L 2425 0
L 1803 0
z
" transform="scale(0.015625)"/>
      </defs>
      <use xlink:href="#ArialMT-56"/>
     </g>
    </g>
   </g>
   <g id="LineCollection_1">
    <path d="M 60.610511 232.232662
L 60.610511 195.126188
" clip-path="url(#pbb54311557)" style="fill: none; stroke: #1f77b4; stroke-opacity: 0.6; stroke-width: 1.5"/>
    <path d="M 87.309076 233.319179
L 87.309076 196.212704
" clip-path="url(#pbb54311557)" style="fill: none; stroke: #1f77b4; stroke-opacity: 0.6; stroke-width: 1.5"/>
    <path d="M 114.007641 213.825935
L 114.007641 176.719461
" clip-path="url(#pbb54311557)" style="fill: none; stroke: #1f77b4; stroke-opacity: 0.6; stroke-width: 1.5"/>
    <path d="M 140.706205 202.546394
L 140.706205 165.439919
" clip-path="url(#pbb54311557)" style="fill: none; stroke: #1f77b4; stroke-opacity: 0.6; stroke-width: 1.5"/>
    <path d="M 167.40477 251.097107
L 167.40477 213.990633
" clip-path="url(#pbb54311557)" style="fill: none; stroke: #1f77b4; stroke-opacity: 0.6; stroke-width: 1.5"/>
    <path d="M 194.103334 275.636603
L 194.103334 238.530128
" clip-path="url(#pbb54311557)" style="fill: none; stroke: #1f77b4; stroke-opacity: 0.6; stroke-width: 1.5"/>
    <path d="M 220.801899 269.562469
L 220.801899 232.455995
" clip-path="url(#pbb54311557)" style="fill: none; stroke: #1f77b4; stroke-opacity: 0.6; stroke-width: 1.5"/>
    <path d="M 247.500464 307.692502
L 247.500464 270.586027
" clip-path="url(#pbb54311557)" style="fill: none; stroke: #1f77b4; stroke-opacity: 0.6; stroke-width: 1.5"/>
    <path d="M 274.199028 341.5
L 274.199028 304.393525
" clip-path="url(#pbb54311557)" style="fill: none; stroke: #1f77b4; stroke-opacity: 0.6; stroke-width: 1.5"/>
    <path d="M 300.897593 315.472525
L 300.897593 278.36605
" clip-path="url(#pbb54311557)" style="fill: none; stroke: #1f77b4; stroke-opacity: 0.6; stroke-width: 1.5"/>
    <path d="M 327.596157 306.415953
L 327.596157 269.309478
" clip-path="url(#pbb54311557)" style="fill: none; stroke: #1f77b4; stroke-opacity: 0.6; stroke-width: 1.5"/>
    <path d="M 354.294722 260.493884
L 354.294722 223.387409
" clip-path="url(#pbb54311557)" style="fill: none; stroke: #1f77b4; stroke-opacity: 0.6; stroke-width: 1.5"/>
    <path d="M 380.993286 190.034019
L 380.993286 152.927544
" clip-path="url(#pbb54311557)" style="fill: none; stroke: #1f77b4; stroke-opacity: 0.6; stroke-width: 1.5"/>
    <path d="M 407.691851 171.858261
L 407.691851 134.751786
" clip-path="url(#pbb54311557)" style="fill: none; stroke: #1f77b4; stroke-opacity: 0.6; stroke-width: 1.5"/>
    <path d="M 434.390416 121.623508
L 434.390416 84.517034
" clip-path="url(#pbb54311557)" style="fill: none; stroke: #1f77b4; stroke-opacity: 0.6; stroke-width: 1.5"/>
    <path d="M 461.08898 76.206475
L 461.08898 39.1
" clip-path="url(#pbb54311557)" style="fill: none; stroke: #1f77b4; stroke-opacity: 0.6; stroke-width: 1.5"/>
    <path d="M 487.787545 91.718316
L 487.787545 54.611841
" clip-path="url(#pbb54311557)" style="fill: none; stroke: #1f77b4; stroke-opacity: 0.6; stroke-width: 1.5"/>
    <path d="M 514.486109 107.884978
L 514.486109 70.778503
" clip-path="url(#pbb54311557)" style="fill: none; stroke: #1f77b4; stroke-opacity: 0.6; stroke-width: 1.5"/>
    <path d="M 541.184674 201.013193
L 541.184674 163.906718
" clip-path="url(#pbb54311557)" style="fill: none; stroke: #1f77b4; stroke-opacity: 0.6; stroke-width: 1.5"/>
    <path d="M 567.883239 300.045084
L 567.883239 262.938609
" clip-path="url(#pbb54311557)" style="fill: none; stroke: #1f77b4; stroke-opacity: 0.6; stroke-width: 1.5"/>
   </g>
   <g id="line2d_37">
    <path d="M 60.610511 222.89508
L 65.734478 220.869327
L 70.858445 218.883475
L 75.982412 216.976991
L 81.106379 215.188471
L 86.230346 213.55522
L 91.354313 212.112836
L 96.47828 210.894818
L 101.602247 209.932182
L 106.726214 209.253113
L 111.850181 208.882633
L 116.974148 208.842304
L 122.098115 209.149959
L 127.222082 209.819471
L 132.346049 210.860559
L 137.470015 212.278628
L 142.593982 214.074659
L 147.717949 216.245128
L 152.841916 218.781982
L 157.965883 221.672648
L 163.08985 224.900087
L 168.213817 228.442896
L 173.337784 232.275449
L 178.461751 236.368082
L 183.585718 240.687313
L 188.709685 245.196112
L 193.833652 249.854195
L 198.957619 254.618359
L 204.081586 259.442852
L 209.205553 264.279767
L 214.32952 269.079459
L 219.453487 273.790994
L 224.577454 278.362605
L 229.70142 282.742174
L 234.825387 286.877714
L 239.949354 290.717866
L 245.073321 294.212392
L 250.197288 297.312671
L 255.321255 299.972186
L 260.445222 302.147001
L 265.569189 303.79622
L 270.693156 304.882435
L 275.817123 305.372143
L 280.94109 305.236136
L 286.065057 304.449868
L 291.189024 302.993781
L 296.312991 300.853594
L 301.436958 298.020555
L 306.560925 294.491645
L 311.684892 290.269743
L 316.808858 285.363739
L 321.932825 279.788596
L 327.056792 273.565369
L 332.180759 266.721166
L 337.304726 259.28906
L 342.428693 251.307953
L 347.55266 242.82238
L 352.676627 233.882273
L 357.800594 224.542668
L 362.924561 214.863368
L 368.048528 204.908563
L 373.172495 194.746401
L 378.296462 184.448523
L 383.420429 174.089562
L 388.544396 163.746606
L 393.668363 153.498632
L 398.79233 143.425916
L 403.916296 133.609419
L 409.040263 124.130161
L 414.16423 115.068577
L 419.288197 106.503874
L 424.412164 98.513378
L 429.536131 91.17189
L 434.660098 84.551048
L 439.784065 78.718703
L 444.908032 73.738314
L 450.031999 69.668369
L 455.155966 66.561825
L 460.279933 64.465596
L 465.4039 63.420067
L 470.527867 63.458658
L 475.651834 64.607425
L 480.775801 66.884721
L 485.899768 70.300905
L 491.023735 74.858108
L 496.147701 80.550058
L 501.271668 87.361965
L 506.395635 95.270472
L 511.519602 104.243668
L 516.643569 114.241165
L 521.767536 125.214245
L 526.891503 137.106065
L 532.01547 149.851933
L 537.139437 163.379644
L 542.263404 177.609881
L 547.387371 192.456671
L 552.511338 207.8279
L 557.635305 223.625886
L 562.759272 239.747998
L 567.883239 256.08732
" clip-path="url(#pbb54311557)" style="fill: none; stroke: #ff0000; stroke-width: 1.5; stroke-linecap: round"/>
   </g>
   <g id="line2d_38">
    <path d="M 60.610511 222.89508
L 65.734478 220.653542
L 70.858445 218.455938
L 75.982412 216.345728
L 81.106379 214.365416
L 86.230346 212.556091
L 91.354313 210.956975
L 96.47828 209.604985
L 101.602247 208.534319
L 106.726214 207.776074
L 111.850181 207.357875
L 116.974148 207.303557
L 122.098115 207.632864
L 127.222082 208.361199
L 132.346049 209.499406
L 137.470015 211.053596
L 142.593982 213.025024
L 147.717949 215.410001
L 152.841916 218.199862
L 157.965883 221.380974
L 163.08985 224.9348
L 168.213817 228.838
L 173.337784 233.062587
L 178.461751 237.576127
L 183.585718 242.341982
L 188.709685 247.319592
L 193.833652 252.464808
L 198.957619 257.730251
L 204.081586 263.065715
L 209.205553 268.418594
L 214.32952 273.734345
L 219.453487 278.956971
L 224.577454 284.029524
L 229.70142 288.894628
L 234.825387 293.49501
L 239.949354 297.774042
L 245.073321 301.676283
L 250.197288 305.14802
L 255.321255 308.137805
L 260.445222 310.596976
L 265.569189 312.480168
L 270.693156 313.745797
L 275.817123 314.356525
L 280.94109 314.279691
L 286.065057 313.487716
L 291.189024 311.958461
L 296.312991 309.675551
L 301.436958 306.628657
L 306.560925 302.813724
L 311.684892 298.233158
L 316.808858 292.895951
L 321.932825 286.817765
L 327.056792 280.020951
L 332.180759 272.534519
L 337.304726 264.394045
L 342.428693 255.641529
L 347.55266 246.325193
L 352.676627 236.499222
L 357.800594 226.223456
L 362.924561 215.563026
L 368.048528 204.587943
L 373.172495 193.372638
L 378.296462 181.995455
L 383.420429 170.53811
L 388.544396 159.085109
L 393.668363 147.723128
L 398.79233 136.540374
L 403.916296 125.625919
L 409.040263 115.069007
L 414.16423 104.958362
L 419.288197 95.381473
L 424.412164 86.423885
L 429.536131 78.168494
L 434.660098 70.694841
L 439.784065 64.078426
L 444.908032 58.390046
L 450.031999 53.695146
L 455.155966 50.053213
L 460.279933 47.517194
L 465.4039 46.132965
L 470.527867 45.938836
L 475.651834 46.965113
L 480.775801 49.23371
L 485.899768 52.757818
L 491.023735 57.541637
L 496.147701 63.58017
L 501.271668 70.859089
L 506.395635 79.354657
L 511.519602 89.033736
L 516.643569 99.85385
L 521.767536 111.763334
L 526.891503 124.701544
L 532.01547 138.59914
L 537.139437 153.378444
L 542.263404 168.953858
L 547.387371 185.232355
L 552.511338 202.114027
L 557.635305 219.492698
L 562.759272 237.25659
L 567.883239 255.289041
" clip-path="url(#pbb54311557)" style="fill: none; stroke-dasharray: 5.55,2.4; stroke-dashoffset: 0; stroke: #000000; stroke-opacity: 0.5; stroke-width: 1.5"/>
   </g>
   <g id="line2d_39">
    <defs>
     <path id="m193d827405" d="M 0 3
C 0.795609 3 1.55874 2.683901 2.12132 2.12132
C 2.683901 1.55874 3 0.795609 3 0
C 3 -0.795609 2.683901 -1.55874 2.12132 -2.12132
C 1.55874 -2.683901 0.795609 -3 0 -3
C -0.795609 -3 -1.55874 -2.683901 -2.12132 -2.12132
C -2.683901 -1.55874 -3 -0.795609 -3 0
C -3 0.795609 -2.683901 1.55874 -2.12132 2.12132
C -1.55874 2.683901 -0.795609 3 0 3
z
" style="stroke: #1f77b4; stroke-opacity: 0.6"/>
    </defs>
    <g clip-path="url(#pbb54311557)">
     <use xlink:href="#m193d827405" x="60.610511" y="213.679425" style="fill: #1f77b4; fill-opacity: 0.6; stroke: #1f77b4; stroke-opacity: 0.6"/>
     <use xlink:href="#m193d827405" x="87.309076" y="214.765942" style="fill: #1f77b4; fill-opacity: 0.6; stroke: #1f77b4; stroke-opacity: 0.6"/>
     <use xlink:href="#m193d827405" x="114.007641" y="195.272698" style="fill: #1f77b4; fill-opacity: 0.6; stroke: #1f77b4; stroke-opacity: 0.6"/>
     <use xlink:href="#m193d827405" x="140.706205" y="183.993157" style="fill: #1f77b4; fill-opacity: 0.6; stroke: #1f77b4; stroke-opacity: 0.6"/>
     <use xlink:href="#m193d827405" x="167.40477" y="232.54387" style="fill: #1f77b4; fill-opacity: 0.6; stroke: #1f77b4; stroke-opacity: 0.6"/>
     <use xlink:href="#m193d827405" x="194.103334" y="257.083365" style="fill: #1f77b4; fill-opacity: 0.6; stroke: #1f77b4; stroke-opacity: 0.6"/>
     <use xlink:href="#m193d827405" x="220.801899" y="251.009232" style="fill: #1f77b4; fill-opacity: 0.6; stroke: #1f77b4; stroke-opacity: 0.6"/>
     <use xlink:href="#m193d827405" x="247.500464" y="289.139264" style="fill: #1f77b4; fill-opacity: 0.6; stroke: #1f77b4; stroke-opacity: 0.6"/>
     <use xlink:href="#m193d827405" x="274.199028" y="322.946763" style="fill: #1f77b4; fill-opacity: 0.6; stroke: #1f77b4; stroke-opacity: 0.6"/>
     <use xlink:href="#m193d827405" x="300.897593" y="296.919287" style="fill: #1f77b4; fill-opacity: 0.6; stroke: #1f77b4; stroke-opacity: 0.6"/>
     <use xlink:href="#m193d827405" x="327.596157" y="287.862715" style="fill: #1f77b4; fill-opacity: 0.6; stroke: #1f77b4; stroke-opacity: 0.6"/>
     <use xlink:href="#m193d827405" x="354.294722" y="241.940646" style="fill: #1f77b4; fill-opacity: 0.6; stroke: #1f77b4; stroke-opacity: 0.6"/>
     <use xlink:href="#m193d827405" x="380.993286" y="171.480781" style="fill: #1f77b4; fill-opacity: 0.6; stroke: #1f77b4; stroke-opacity: 0.6"/>
     <use xlink:href="#m193d827405" x="407.691851" y="153.305024" style="fill: #1f77b4; fill-opacity: 0.6; stroke: #1f77b4; stroke-opacity: 0.6"/>
     <use xlink:href="#m193d827405" x="434.390416" y="103.070271" style="fill: #1f77b4; fill-opacity: 0.6; stroke: #1f77b4; stroke-opacity: 0.6"/>
     <use xlink:href="#m193d827405" x="461.08898" y="57.653237" style="fill: #1f77b4; fill-opacity: 0.6; stroke: #1f77b4; stroke-opacity: 0.6"/>
     <use xlink:href="#m193d827405" x="487.787545" y="73.165079" style="fill: #1f77b4; fill-opacity: 0.6; stroke: #1f77b4; stroke-opacity: 0.6"/>
     <use xlink:href="#m193d827405" x="514.486109" y="89.33174" style="fill: #1f77b4; fill-opacity: 0.6; stroke: #1f77b4; stroke-opacity: 0.6"/>
     <use xlink:href="#m193d827405" x="541.184674" y="182.459956" style="fill: #1f77b4; fill-opacity: 0.6; stroke: #1f77b4; stroke-opacity: 0.6"/>
     <use xlink:href="#m193d827405" x="567.883239" y="281.491846" style="fill: #1f77b4; fill-opacity: 0.6; stroke: #1f77b4; stroke-opacity: 0.6"/>
    </g>
   </g>
   <g id="patch_3">
    <path d="M 35.246875 356.62
L 35.246875 23.98
" style="fill: none; stroke: #cccccc; stroke-linejoin: miter; stroke-linecap: square"/>
   </g>
   <g id="patch_4">
    <path d="M 593.246875 356.62
L 593.246875 23.98
" style="fill: none; stroke: #cccccc; stroke-linejoin: miter; stroke-linecap: square"/>
   </g>
   <g id="patch_5">
    <path d="M 35.246875 356.62
L 593.246875 356.62
" style="fill: none; stroke: #cccccc; stroke-linejoin: miter; stroke-linecap: square"/>
   </g>
   <g id="patch_6">
    <path d="M 35.246875 23.98
L 593.246875 23.98
" style="fill: none; stroke: #cccccc; stroke-linejoin: miter; stroke-linecap: square"/>
   </g>
   <g id="text_21">
    <!-- Non-Linear Fit: $V(t) = \alpha t \cos(\beta t)$ -->
    <g style="fill: #262626" transform="translate(212.536875 17.98) scale(0.14 -0.14)">
     <defs>
      <path id="ArialMT-4e" d="M 488 0
L 488 4581
L 1109 4581
L 3516 984
L 3516 4581
L 4097 4581
L 4097 0
L 3475 0
L 1069 3600
L 1069 0
L 488 0
z
" transform="scale(0.015625)"/>
      <path id="ArialMT-6f" d="M 213 1659
Q 213 2581 725 3025
Q 1153 3394 1769 3394
Q 2453 3394 2887 2945
Q 3322 2497 3322 1706
Q 3322 1066 3130 698
Q 2938 331 2570 128
Q 2203 -75 1769 -75
Q 1072 -75 642 372
Q 213 819 213 1659
z
M 791 1659
Q 791 1022 1069 705
Q 1347 388 1769 388
Q 2188 388 2466 706
Q 2744 1025 2744 1678
Q 2744 2294 2464 2611
Q 2184 2928 1769 2928
Q 1347 2928 1069 2612
Q 791 2297 791 1659
z
" transform="scale(0.015625)"/>
      <path id="ArialMT-6e" d="M 422 0
L 422 3319
L 928 3319
L 928 2847
Q 1294 3394 1984 3394
Q 2284 3394 2536 3286
Q 2788 3178 2913 3003
Q 3038 2828 3088 2588
Q 3119 2431 3119 2041
L 3119 0
L 2556 0
L 2556 2019
Q 2556 2363 2490 2533
Q 2425 2703 2258 2804
Q 2091 2906 1866 2906
Q 1506 2906 1245 2678
Q 984 2450 984 1813
L 984 0
L 422 0
z
" transform="scale(0.015625)"/>
      <path id="ArialMT-2d" d="M 203 1375
L 203 1941
L 1931 1941
L 1931 1375
L 203 1375
z
" transform="scale(0.015625)"/>
      <path id="ArialMT-4c" d="M 469 0
L 469 4581
L 1075 4581
L 1075 541
L 3331 541
L 3331 0
L 469 0
z
" transform="scale(0.015625)"/>
      <path id="ArialMT-69" d="M 425 3934
L 425 4581
L 988 4581
L 988 3934
L 425 3934
z
M 425 0
L 425 3319
L 988 3319
L 988 0
L 425 0
z
" transform="scale(0.015625)"/>
      <path id="ArialMT-65" d="M 2694 1069
L 3275 997
Q 3138 488 2766 206
Q 2394 -75 1816 -75
Q 1088 -75 661 373
Q 234 822 234 1631
Q 234 2469 665 2931
Q 1097 3394 1784 3394
Q 2450 3394 2872 2941
Q 3294 2488 3294 1666
Q 3294 1616 3291 1516
L 816 1516
Q 847 969 1125 678
Q 1403 388 1819 388
Q 2128 388 2347 550
Q 2566 713 2694 1069
z
M 847 1978
L 2700 1978
Q 2663 2397 2488 2606
Q 2219 2931 1791 2931
Q 1403 2931 1139 2672
Q 875 2413 847 1978
z
" transform="scale(0.015625)"/>
      <path id="ArialMT-61" d="M 2588 409
Q 2275 144 1986 34
Q 1697 -75 1366 -75
Q 819 -75 525 192
Q 231 459 231 875
Q 231 1119 342 1320
Q 453 1522 633 1644
Q 813 1766 1038 1828
Q 1203 1872 1538 1913
Q 2219 1994 2541 2106
Q 2544 2222 2544 2253
Q 2544 2597 2384 2738
Q 2169 2928 1744 2928
Q 1347 2928 1158 2789
Q 969 2650 878 2297
L 328 2372
Q 403 2725 575 2942
Q 747 3159 1072 3276
Q 1397 3394 1825 3394
Q 2250 3394 2515 3294
Q 2781 3194 2906 3042
Q 3031 2891 3081 2659
Q 3109 2516 3109 2141
L 3109 1391
Q 3109 606 3145 398
Q 3181 191 3288 0
L 2700 0
Q 2613 175 2588 409
z
M 2541 1666
Q 2234 1541 1622 1453
Q 1275 1403 1131 1340
Q 988 1278 909 1158
Q 831 1038 831 891
Q 831 666 1001 516
Q 1172 366 1500 366
Q 1825 366 2078 508
Q 2331 650 2450 897
Q 2541 1088 2541 1459
L 2541 1666
z
" transform="scale(0.015625)"/>
      <path id="ArialMT-72" d="M 416 0
L 416 3319
L 922 3319
L 922 2816
Q 1116 3169 1280 3281
Q 1444 3394 1641 3394
Q 1925 3394 2219 3213
L 2025 2691
Q 1819 2813 1613 2813
Q 1428 2813 1281 2702
Q 1134 2591 1072 2394
Q 978 2094 978 1738
L 978 0
L 416 0
z
" transform="scale(0.015625)"/>
      <path id="ArialMT-20" transform="scale(0.015625)"/>
      <path id="ArialMT-46" d="M 525 0
L 525 4581
L 3616 4581
L 3616 4041
L 1131 4041
L 1131 2622
L 3281 2622
L 3281 2081
L 1131 2081
L 1131 0
L 525 0
z
" transform="scale(0.015625)"/>
      <path id="ArialMT-3a" d="M 578 2678
L 578 3319
L 1219 3319
L 1219 2678
L 578 2678
z
M 578 0
L 578 641
L 1219 641
L 1219 0
L 578 0
z
" transform="scale(0.015625)"/>
      <path id="DejaVuSans-Oblique-56" d="M 1319 0
L 500 4666
L 1119 4666
L 1797 653
L 4063 4666
L 4750 4666
L 2053 0
L 1319 0
z
" transform="scale(0.015625)"/>
      <path id="DejaVuSans-28" d="M 1984 4856
Q 1566 4138 1362 3434
Q 1159 2731 1159 2009
Q 1159 1288 1364 580
Q 1569 -128 1984 -844
L 1484 -844
Q 1016 -109 783 600
Q 550 1309 550 2009
Q 550 2706 781 3412
Q 1013 4119 1484 4856
L 1984 4856
z
" transform="scale(0.015625)"/>
      <path id="DejaVuSans-Oblique-74" d="M 2706 3500
L 2619 3053
L 1472 3053
L 1100 1153
Q 1081 1047 1072 975
Q 1063 903 1063 863
Q 1063 663 1183 572
Q 1303 481 1569 481
L 2150 481
L 2053 0
L 1503 0
Q 991 0 739 200
Q 488 400 488 806
Q 488 878 497 964
Q 506 1050 525 1153
L 897 3053
L 409 3053
L 500 3500
L 978 3500
L 1172 4494
L 1747 4494
L 1556 3500
L 2706 3500
z
" transform="scale(0.015625)"/>
      <path id="DejaVuSans-29" d="M 513 4856
L 1013 4856
Q 1481 4119 1714 3412
Q 1947 2706 1947 2009
Q 1947 1309 1714 600
Q 1481 -109 1013 -844
L 513 -844
Q 928 -128 1133 580
Q 1338 1288 1338 2009
Q 1338 2731 1133 3434
Q 928 4138 513 4856
z
" transform="scale(0.015625)"/>
      <path id="DejaVuSans-3d" d="M 678 2906
L 4684 2906
L 4684 2381
L 678 2381
L 678 2906
z
M 678 1631
L 4684 1631
L 4684 1100
L 678 1100
L 678 1631
z
" transform="scale(0.015625)"/>
      <path id="DejaVuSans-Oblique-3b1" d="M 2619 1628
L 2622 2350
Q 2625 3088 2069 3091
Q 1653 3094 1394 2747
Q 1069 2319 959 1747
Q 825 1059 994 731
Q 1169 397 1547 397
Q 1966 397 2319 1063
L 2619 1628
z
M 2166 3578
Q 3141 3594 3128 2584
Q 3128 2584 3616 3500
L 4128 3500
L 3119 1603
L 3109 919
Q 3109 766 3194 638
Q 3291 488 3391 488
L 3669 488
L 3575 0
L 3228 0
Q 2934 0 2722 263
Q 2622 394 2619 669
Q 2416 334 2066 50
Q 1900 -81 1453 -78
Q 722 -72 456 397
Q 184 884 353 1747
Q 534 2675 1009 3097
Q 1544 3569 2166 3578
z
" transform="scale(0.015625)"/>
      <path id="DejaVuSans-63" d="M 3122 3366
L 3122 2828
Q 2878 2963 2633 3030
Q 2388 3097 2138 3097
Q 1578 3097 1268 2742
Q 959 2388 959 1747
Q 959 1106 1268 751
Q 1578 397 2138 397
Q 2388 397 2633 464
Q 2878 531 3122 666
L 3122 134
Q 2881 22 2623 -34
Q 2366 -91 2075 -91
Q 1284 -91 818 406
Q 353 903 353 1747
Q 353 2603 823 3093
Q 1294 3584 2113 3584
Q 2378 3584 2631 3529
Q 2884 3475 3122 3366
z
" transform="scale(0.015625)"/>
      <path id="DejaVuSans-6f" d="M 1959 3097
Q 1497 3097 1228 2736
Q 959 2375 959 1747
Q 959 1119 1226 758
Q 1494 397 1959 397
Q 2419 397 2687 759
Q 2956 1122 2956 1747
Q 2956 2369 2687 2733
Q 2419 3097 1959 3097
z
M 1959 3584
Q 2709 3584 3137 3096
Q 3566 2609 3566 1747
Q 3566 888 3137 398
Q 2709 -91 1959 -91
Q 1206 -91 779 398
Q 353 888 353 1747
Q 353 2609 779 3096
Q 1206 3584 1959 3584
z
" transform="scale(0.015625)"/>
      <path id="DejaVuSans-73" d="M 2834 3397
L 2834 2853
Q 2591 2978 2328 3040
Q 2066 3103 1784 3103
Q 1356 3103 1142 2972
Q 928 2841 928 2578
Q 928 2378 1081 2264
Q 1234 2150 1697 2047
L 1894 2003
Q 2506 1872 2764 1633
Q 3022 1394 3022 966
Q 3022 478 2636 193
Q 2250 -91 1575 -91
Q 1294 -91 989 -36
Q 684 19 347 128
L 347 722
Q 666 556 975 473
Q 1284 391 1588 391
Q 1994 391 2212 530
Q 2431 669 2431 922
Q 2431 1156 2273 1281
Q 2116 1406 1581 1522
L 1381 1569
Q 847 1681 609 1914
Q 372 2147 372 2553
Q 372 3047 722 3315
Q 1072 3584 1716 3584
Q 2034 3584 2315 3537
Q 2597 3491 2834 3397
z
" transform="scale(0.015625)"/>
      <path id="DejaVuSans-Oblique-3b2" d="M 872 216
L 572 -1331
L -6 -1331
L 928 3478
Q 1206 4903 2538 4903
Q 3888 4903 3659 3700
Q 3503 2844 2894 2531
Q 3713 2250 3553 1416
Q 3272 -69 1759 -66
Q 1097 -63 872 216
z
M 1019 966
Q 1259 422 1875 425
Q 2775 425 2966 1406
Q 3138 2288 1675 2219
L 1778 2750
Q 2909 2731 3106 3750
Q 3241 4438 2509 4434
Q 1691 4434 1503 3459
L 1019 966
z
" transform="scale(0.015625)"/>
     </defs>
     <use xlink:href="#ArialMT-4e" transform="translate(0 0.390625)"/>
     <use xlink:href="#ArialMT-6f" transform="translate(72.216797 0.390625)"/>
     <use xlink:href="#ArialMT-6e" transform="translate(127.832031 0.390625)"/>
     <use xlink:href="#ArialMT-2d" transform="translate(183.447266 0.390625)"/>
     <use xlink:href="#ArialMT-4c" transform="translate(216.748047 0.390625)"/>
     <use xlink:href="#ArialMT-69" transform="translate(272.363281 0.390625)"/>
     <use xlink:href="#ArialMT-6e" transform="translate(294.580078 0.390625)"/>
     <use xlink:href="#ArialMT-65" transform="translate(350.195312 0.390625)"/>
     <use xlink:href="#ArialMT-61" transform="translate(405.810547 0.390625)"/>
     <use xlink:href="#ArialMT-72" transform="translate(461.425781 0.390625)"/>
     <use xlink:href="#ArialMT-20" transform="translate(494.726562 0.390625)"/>
     <use xlink:href="#ArialMT-46" transform="translate(522.509766 0.390625)"/>
     <use xlink:href="#ArialMT-69" transform="translate(583.59375 0.390625)"/>
     <use xlink:href="#ArialMT-74" transform="translate(605.810547 0.390625)"/>
     <use xlink:href="#ArialMT-3a" transform="translate(633.59375 0.390625)"/>
     <use xlink:href="#ArialMT-20" transform="translate(661.376953 0.390625)"/>
     <use xlink:href="#DejaVuSans-Oblique-56" transform="translate(689.160156 0.390625)"/>
     <use xlink:href="#DejaVuSans-28" transform="translate(757.568359 0.390625)"/>
     <use xlink:href="#DejaVuSans-Oblique-74" transform="translate(796.582031 0.390625)"/>
     <use xlink:href="#DejaVuSans-29" transform="translate(835.791016 0.390625)"/>
     <use xlink:href="#DejaVuSans-3d" transform="translate(894.287109 0.390625)"/>
     <use xlink:href="#DejaVuSans-Oblique-3b1" transform="translate(997.558594 0.390625)"/>
     <use xlink:href="#DejaVuSans-Oblique-74" transform="translate(1063.476562 0.390625)"/>
     <use xlink:href="#DejaVuSans-63" transform="translate(1102.685547 0.390625)"/>
     <use xlink:href="#DejaVuSans-6f" transform="translate(1157.666016 0.390625)"/>
     <use xlink:href="#DejaVuSans-73" transform="translate(1218.847656 0.390625)"/>
     <use xlink:href="#DejaVuSans-28" transform="translate(1270.947266 0.390625)"/>
     <use xlink:href="#DejaVuSans-Oblique-3b2" transform="translate(1309.960938 0.390625)"/>
     <use xlink:href="#DejaVuSans-Oblique-74" transform="translate(1373.779297 0.390625)"/>
     <use xlink:href="#DejaVuSans-29" transform="translate(1412.988281 0.390625)"/>
    </g>
   </g>
   <g id="legend_1">
    <g id="line2d_40">
     <path d="M 44.246875 36.637813
L 54.246875 36.637813
L 64.246875 36.637813
" style="fill: none; stroke: #ff0000; stroke-width: 1.5; stroke-linecap: round"/>
    </g>
    <g id="text_22">
     <!-- Best Fit Model -->
     <g style="fill: #262626" transform="translate(72.246875 40.137813) scale(0.1 -0.1)">
      <defs>
       <path id="ArialMT-42" d="M 469 0
L 469 4581
L 2188 4581
Q 2713 4581 3030 4442
Q 3347 4303 3526 4014
Q 3706 3725 3706 3409
Q 3706 3116 3547 2856
Q 3388 2597 3066 2438
Q 3481 2316 3704 2022
Q 3928 1728 3928 1328
Q 3928 1006 3792 729
Q 3656 453 3456 303
Q 3256 153 2954 76
Q 2653 0 2216 0
L 469 0
z
M 1075 2656
L 2066 2656
Q 2469 2656 2644 2709
Q 2875 2778 2992 2937
Q 3109 3097 3109 3338
Q 3109 3566 3000 3739
Q 2891 3913 2687 3977
Q 2484 4041 1991 4041
L 1075 4041
L 1075 2656
z
M 1075 541
L 2216 541
Q 2509 541 2628 563
Q 2838 600 2978 687
Q 3119 775 3209 942
Q 3300 1109 3300 1328
Q 3300 1584 3169 1773
Q 3038 1963 2805 2039
Q 2572 2116 2134 2116
L 1075 2116
L 1075 541
z
" transform="scale(0.015625)"/>
       <path id="ArialMT-73" d="M 197 991
L 753 1078
Q 800 744 1014 566
Q 1228 388 1613 388
Q 2000 388 2187 545
Q 2375 703 2375 916
Q 2375 1106 2209 1216
Q 2094 1291 1634 1406
Q 1016 1563 777 1677
Q 538 1791 414 1992
Q 291 2194 291 2438
Q 291 2659 392 2848
Q 494 3038 669 3163
Q 800 3259 1026 3326
Q 1253 3394 1513 3394
Q 1903 3394 2198 3281
Q 2494 3169 2634 2976
Q 2775 2784 2828 2463
L 2278 2388
Q 2241 2644 2061 2787
Q 1881 2931 1553 2931
Q 1166 2931 1000 2803
Q 834 2675 834 2503
Q 834 2394 903 2306
Q 972 2216 1119 2156
Q 1203 2125 1616 2013
Q 2213 1853 2448 1751
Q 2684 1650 2818 1456
Q 2953 1263 2953 975
Q 2953 694 2789 445
Q 2625 197 2315 61
Q 2006 -75 1616 -75
Q 969 -75 630 194
Q 291 463 197 991
z
" transform="scale(0.015625)"/>
       <path id="ArialMT-4d" d="M 475 0
L 475 4581
L 1388 4581
L 2472 1338
Q 2622 884 2691 659
Q 2769 909 2934 1394
L 4031 4581
L 4847 4581
L 4847 0
L 4263 0
L 4263 3834
L 2931 0
L 2384 0
L 1059 3900
L 1059 0
L 475 0
z
" transform="scale(0.015625)"/>
       <path id="ArialMT-64" d="M 2575 0
L 2575 419
Q 2259 -75 1647 -75
Q 1250 -75 917 144
Q 584 363 401 755
Q 219 1147 219 1656
Q 219 2153 384 2558
Q 550 2963 881 3178
Q 1213 3394 1622 3394
Q 1922 3394 2156 3267
Q 2391 3141 2538 2938
L 2538 4581
L 3097 4581
L 3097 0
L 2575 0
z
M 797 1656
Q 797 1019 1065 703
Q 1334 388 1700 388
Q 2069 388 2326 689
Q 2584 991 2584 1609
Q 2584 2291 2321 2609
Q 2059 2928 1675 2928
Q 1300 2928 1048 2622
Q 797 2316 797 1656
z
" transform="scale(0.015625)"/>
       <path id="ArialMT-6c" d="M 409 0
L 409 4581
L 972 4581
L 972 0
L 409 0
z
" transform="scale(0.015625)"/>
      </defs>
      <use xlink:href="#ArialMT-42"/>
      <use xlink:href="#ArialMT-65" transform="translate(66.699219 0)"/>
      <use xlink:href="#ArialMT-73" transform="translate(122.314453 0)"/>
      <use xlink:href="#ArialMT-74" transform="translate(172.314453 0)"/>
      <use xlink:href="#ArialMT-20" transform="translate(200.097656 0)"/>
      <use xlink:href="#ArialMT-46" transform="translate(227.880859 0)"/>
      <use xlink:href="#ArialMT-69" transform="translate(288.964844 0)"/>
      <use xlink:href="#ArialMT-74" transform="translate(311.181641 0)"/>
      <use xlink:href="#ArialMT-20" transform="translate(338.964844 0)"/>
      <use xlink:href="#ArialMT-4d" transform="translate(366.748047 0)"/>
      <use xlink:href="#ArialMT-6f" transform="translate(450.048828 0)"/>
      <use xlink:href="#ArialMT-64" transform="translate(505.664062 0)"/>
      <use xlink:href="#ArialMT-65" transform="translate(561.279297 0)"/>
      <use xlink:href="#ArialMT-6c" transform="translate(616.894531 0)"/>
     </g>
    </g>
    <g id="line2d_41">
     <path d="M 44.246875 50.783125
L 54.246875 50.783125
L 64.246875 50.783125
" style="fill: none; stroke-dasharray: 5.55,2.4; stroke-dashoffset: 0; stroke: #000000; stroke-opacity: 0.5; stroke-width: 1.5"/>
    </g>
    <g id="text_23">
     <!-- True Model -->
     <g style="fill: #262626" transform="translate(72.246875 54.283125) scale(0.1 -0.1)">
      <defs>
       <path id="ArialMT-54" d="M 1659 0
L 1659 4041
L 150 4041
L 150 4581
L 3781 4581
L 3781 4041
L 2266 4041
L 2266 0
L 1659 0
z
" transform="scale(0.015625)"/>
       <path id="ArialMT-75" d="M 2597 0
L 2597 488
Q 2209 -75 1544 -75
Q 1250 -75 995 37
Q 741 150 617 320
Q 494 491 444 738
Q 409 903 409 1263
L 409 3319
L 972 3319
L 972 1478
Q 972 1038 1006 884
Q 1059 663 1231 536
Q 1403 409 1656 409
Q 1909 409 2131 539
Q 2353 669 2445 892
Q 2538 1116 2538 1541
L 2538 3319
L 3100 3319
L 3100 0
L 2597 0
z
" transform="scale(0.015625)"/>
      </defs>
      <use xlink:href="#ArialMT-54"/>
      <use xlink:href="#ArialMT-72" transform="translate(57.333984 0)"/>
      <use xlink:href="#ArialMT-75" transform="translate(90.634766 0)"/>
      <use xlink:href="#ArialMT-65" transform="translate(146.25 0)"/>
      <use xlink:href="#ArialMT-20" transform="translate(201.865234 0)"/>
      <use xlink:href="#ArialMT-4d" transform="translate(229.648438 0)"/>
      <use xlink:href="#ArialMT-6f" transform="translate(312.949219 0)"/>
      <use xlink:href="#ArialMT-64" transform="translate(368.564453 0)"/>
      <use xlink:href="#ArialMT-65" transform="translate(424.179688 0)"/>
      <use xlink:href="#ArialMT-6c" transform="translate(479.794922 0)"/>
     </g>
    </g>
    <g id="LineCollection_2">
     <path d="M 54.246875 69.928438
L 54.246875 59.928438
" style="fill: none; stroke: #1f77b4; stroke-opacity: 0.6; stroke-width: 1.5"/>
    </g>
    <g id="line2d_42"/>
    <g id="line2d_43">
     <g>
      <use xlink:href="#m193d827405" x="54.246875" y="64.928438" style="fill: #1f77b4; fill-opacity: 0.6; stroke: #1f77b4; stroke-opacity: 0.6"/>
     </g>
    </g>
    <g id="text_24">
     <!-- Noisy Data -->
     <g style="fill: #262626" transform="translate(72.246875 68.428438) scale(0.1 -0.1)">
      <defs>
       <path id="ArialMT-79" d="M 397 -1278
L 334 -750
Q 519 -800 656 -800
Q 844 -800 956 -737
Q 1069 -675 1141 -563
Q 1194 -478 1313 -144
Q 1328 -97 1363 -6
L 103 3319
L 709 3319
L 1400 1397
Q 1534 1031 1641 628
Q 1738 1016 1872 1384
L 2581 3319
L 3144 3319
L 1881 -56
Q 1678 -603 1566 -809
Q 1416 -1088 1222 -1217
Q 1028 -1347 759 -1347
Q 597 -1347 397 -1278
z
" transform="scale(0.015625)"/>
       <path id="ArialMT-44" d="M 494 0
L 494 4581
L 2072 4581
Q 2606 4581 2888 4516
Q 3281 4425 3559 4188
Q 3922 3881 4101 3404
Q 4281 2928 4281 2316
Q 4281 1794 4159 1391
Q 4038 988 3847 723
Q 3656 459 3429 307
Q 3203 156 2883 78
Q 2563 0 2147 0
L 494 0
z
M 1100 541
L 2078 541
Q 2531 541 2789 625
Q 3047 709 3200 863
Q 3416 1078 3536 1442
Q 3656 1806 3656 2325
Q 3656 3044 3420 3430
Q 3184 3816 2847 3947
Q 2603 4041 2063 4041
L 1100 4041
L 1100 541
z
" transform="scale(0.015625)"/>
      </defs>
      <use xlink:href="#ArialMT-4e"/>
      <use xlink:href="#ArialMT-6f" transform="translate(72.216797 0)"/>
      <use xlink:href="#ArialMT-69" transform="translate(127.832031 0)"/>
      <use xlink:href="#ArialMT-73" transform="translate(150.048828 0)"/>
      <use xlink:href="#ArialMT-79" transform="translate(200.048828 0)"/>
      <use xlink:href="#ArialMT-20" transform="translate(250.048828 0)"/>
      <use xlink:href="#ArialMT-44" transform="translate(277.832031 0)"/>
      <use xlink:href="#ArialMT-61" transform="translate(350.048828 0)"/>
      <use xlink:href="#ArialMT-74" transform="translate(405.664062 0)"/>
      <use xlink:href="#ArialMT-61" transform="translate(433.447266 0)"/>
     </g>
    </g>
   </g>
  </g>
 </g>
 <defs>
  <clipPath id="pbb54311557">
   <rect x="35.246875" y="23.98" width="558" height="332.64"/>
  </clipPath>
 </defs>
</svg>
