<?xml version="1.0" encoding="utf-8" standalone="no"?>
<!DOCTYPE svg PUBLIC "-//W3C//DTD SVG 1.1//EN"
  "http://www.w3.org/Graphics/SVG/1.1/DTD/svg11.dtd">
<svg xmlns:xlink="http://www.w3.org/1999/xlink" width="603.0625pt" height="387.56625pt" viewBox="0 0 603.0625 387.56625" xmlns="http://www.w3.org/2000/svg" version="1.1">
 <metadata>
  <rdf:RDF xmlns:dc="http://purl.org/dc/elements/1.1/" xmlns:cc="http://creativecommons.org/ns#" xmlns:rdf="http://www.w3.org/1999/02/22-rdf-syntax-ns#">
   <cc:Work>
    <dc:type rdf:resource="http://purl.org/dc/dcmitype/StillImage"/>
    <dc:date>2026-01-26T14:15:08.097998</dc:date>
    <dc:format>image/svg+xml</dc:format>
    <dc:creator>
     <cc:Agent>
      <dc:title>Matplotlib v3.10.8, https://matplotlib.org/</dc:title>
     </cc:Agent>
    </dc:creator>
   </cc:Work>
  </rdf:RDF>
 </metadata>
 <defs>
  <style type="text/css">*{stroke-linejoin: round; stroke-linecap: butt}</style>
 </defs>
 <g id="figure_1">
  <g id="patch_1">
   <path d="M 0 387.56625
L 603.0625 387.56625
L 603.0625 0
L 0 0
z
" style="fill: #ffffff"/>
  </g>
  <g id="axes_1">
   <g id="patch_2">
    <path d="M 37.8625 354.575625
L 595.8625 354.575625
L 595.8625 21.935625
L 37.8625 21.935625
z
" style="fill: #ffffff"/>
   </g>
   <g id="matplotlib.axis_1">
    <g id="xtick_1">
     <g id="line2d_1">
      <path d="M 63.226136 354.575625
L 63.226136 21.935625
" clip-path="url(#p8142608ea3)" style="fill: none; stroke: #cccccc; stroke-width: 0.8; stroke-linecap: round"/>
     </g>
     <g id="line2d_2"/>
     <g id="text_1">
      <!-- −4 -->
      <g style="fill: #262626" transform="translate(57.525355 365.233438) scale(0.1 -0.1)">
       <defs>
        <path id="ArialMT-2212" d="M 3381 1997
L 356 1997
L 356 2522
L 3381 2522
L 3381 1997
z
" transform="scale(0.015625)"/>
        <path id="ArialMT-34" d="M 2069 0
L 2069 1097
L 81 1097
L 81 1613
L 2172 4581
L 2631 4581
L 2631 1613
L 3250 1613
L 3250 1097
L 2631 1097
L 2631 0
L 2069 0
z
M 2069 1613
L 2069 3678
L 634 1613
L 2069 1613
z
" transform="scale(0.015625)"/>
       </defs>
       <use xlink:href="#ArialMT-2212"/>
       <use xlink:href="#ArialMT-34" transform="translate(58.398438 0)"/>
      </g>
     </g>
    </g>
    <g id="xtick_2">
     <g id="line2d_3">
      <path d="M 126.635227 354.575625
L 126.635227 21.935625
" clip-path="url(#p8142608ea3)" style="fill: none; stroke: #cccccc; stroke-width: 0.8; stroke-linecap: round"/>
     </g>
     <g id="line2d_4"/>
     <g id="text_2">
      <!-- −3 -->
      <g style="fill: #262626" transform="translate(120.934446 365.233438) scale(0.1 -0.1)">
       <defs>
        <path id="ArialMT-33" d="M 269 1209
L 831 1284
Q 928 806 1161 595
Q 1394 384 1728 384
Q 2125 384 2398 659
Q 2672 934 2672 1341
Q 2672 1728 2419 1979
Q 2166 2231 1775 2231
Q 1616 2231 1378 2169
L 1441 2663
Q 1497 2656 1531 2656
Q 1891 2656 2178 2843
Q 2466 3031 2466 3422
Q 2466 3731 2256 3934
Q 2047 4138 1716 4138
Q 1388 4138 1169 3931
Q 950 3725 888 3313
L 325 3413
Q 428 3978 793 4289
Q 1159 4600 1703 4600
Q 2078 4600 2393 4439
Q 2709 4278 2876 4000
Q 3044 3722 3044 3409
Q 3044 3113 2884 2869
Q 2725 2625 2413 2481
Q 2819 2388 3044 2092
Q 3269 1797 3269 1353
Q 3269 753 2831 336
Q 2394 -81 1725 -81
Q 1122 -81 723 278
Q 325 638 269 1209
z
" transform="scale(0.015625)"/>
       </defs>
       <use xlink:href="#ArialMT-2212"/>
       <use xlink:href="#ArialMT-33" transform="translate(58.398438 0)"/>
      </g>
     </g>
    </g>
    <g id="xtick_3">
     <g id="line2d_5">
      <path d="M 190.044318 354.575625
L 190.044318 21.935625
" clip-path="url(#p8142608ea3)" style="fill: none; stroke: #cccccc; stroke-width: 0.8; stroke-linecap: round"/>
     </g>
     <g id="line2d_6"/>
     <g id="text_3">
      <!-- −2 -->
      <g style="fill: #262626" transform="translate(184.343537 365.233438) scale(0.1 -0.1)">
       <defs>
        <path id="ArialMT-32" d="M 3222 541
L 3222 0
L 194 0
Q 188 203 259 391
Q 375 700 629 1000
Q 884 1300 1366 1694
Q 2113 2306 2375 2664
Q 2638 3022 2638 3341
Q 2638 3675 2398 3904
Q 2159 4134 1775 4134
Q 1369 4134 1125 3890
Q 881 3647 878 3216
L 300 3275
Q 359 3922 746 4261
Q 1134 4600 1788 4600
Q 2447 4600 2831 4234
Q 3216 3869 3216 3328
Q 3216 3053 3103 2787
Q 2991 2522 2730 2228
Q 2469 1934 1863 1422
Q 1356 997 1212 845
Q 1069 694 975 541
L 3222 541
z
" transform="scale(0.015625)"/>
       </defs>
       <use xlink:href="#ArialMT-2212"/>
       <use xlink:href="#ArialMT-32" transform="translate(58.398438 0)"/>
      </g>
     </g>
    </g>
    <g id="xtick_4">
     <g id="line2d_7">
      <path d="M 253.453409 354.575625
L 253.453409 21.935625
" clip-path="url(#p8142608ea3)" style="fill: none; stroke: #cccccc; stroke-width: 0.8; stroke-linecap: round"/>
     </g>
     <g id="line2d_8"/>
     <g id="text_4">
      <!-- −1 -->
      <g style="fill: #262626" transform="translate(247.752628 365.233438) scale(0.1 -0.1)">
       <defs>
        <path id="ArialMT-31" d="M 2384 0
L 1822 0
L 1822 3584
Q 1619 3391 1289 3197
Q 959 3003 697 2906
L 697 3450
Q 1169 3672 1522 3987
Q 1875 4303 2022 4600
L 2384 4600
L 2384 0
z
" transform="scale(0.015625)"/>
       </defs>
       <use xlink:href="#ArialMT-2212"/>
       <use xlink:href="#ArialMT-31" transform="translate(58.398438 0)"/>
      </g>
     </g>
    </g>
    <g id="xtick_5">
     <g id="line2d_9">
      <path d="M 316.8625 354.575625
L 316.8625 21.935625
" clip-path="url(#p8142608ea3)" style="fill: none; stroke: #cccccc; stroke-width: 0.8; stroke-linecap: round"/>
     </g>
     <g id="line2d_10"/>
     <g id="text_5">
      <!-- 0 -->
      <g style="fill: #262626" transform="translate(314.082031 365.233438) scale(0.1 -0.1)">
       <defs>
        <path id="ArialMT-30" d="M 266 2259
Q 266 3072 433 3567
Q 600 4063 929 4331
Q 1259 4600 1759 4600
Q 2128 4600 2406 4451
Q 2684 4303 2865 4023
Q 3047 3744 3150 3342
Q 3253 2941 3253 2259
Q 3253 1453 3087 958
Q 2922 463 2592 192
Q 2263 -78 1759 -78
Q 1097 -78 719 397
Q 266 969 266 2259
z
M 844 2259
Q 844 1131 1108 757
Q 1372 384 1759 384
Q 2147 384 2411 759
Q 2675 1134 2675 2259
Q 2675 3391 2411 3762
Q 2147 4134 1753 4134
Q 1366 4134 1134 3806
Q 844 3388 844 2259
z
" transform="scale(0.015625)"/>
       </defs>
       <use xlink:href="#ArialMT-30"/>
      </g>
     </g>
    </g>
    <g id="xtick_6">
     <g id="line2d_11">
      <path d="M 380.271591 354.575625
L 380.271591 21.935625
" clip-path="url(#p8142608ea3)" style="fill: none; stroke: #cccccc; stroke-width: 0.8; stroke-linecap: round"/>
     </g>
     <g id="line2d_12"/>
     <g id="text_6">
      <!-- 1 -->
      <g style="fill: #262626" transform="translate(377.491122 365.233438) scale(0.1 -0.1)">
       <use xlink:href="#ArialMT-31"/>
      </g>
     </g>
    </g>
    <g id="xtick_7">
     <g id="line2d_13">
      <path d="M 443.680682 354.575625
L 443.680682 21.935625
" clip-path="url(#p8142608ea3)" style="fill: none; stroke: #cccccc; stroke-width: 0.8; stroke-linecap: round"/>
     </g>
     <g id="line2d_14"/>
     <g id="text_7">
      <!-- 2 -->
      <g style="fill: #262626" transform="translate(440.900213 365.233438) scale(0.1 -0.1)">
       <use xlink:href="#ArialMT-32"/>
      </g>
     </g>
    </g>
    <g id="xtick_8">
     <g id="line2d_15">
      <path d="M 507.089773 354.575625
L 507.089773 21.935625
" clip-path="url(#p8142608ea3)" style="fill: none; stroke: #cccccc; stroke-width: 0.8; stroke-linecap: round"/>
     </g>
     <g id="line2d_16"/>
     <g id="text_8">
      <!-- 3 -->
      <g style="fill: #262626" transform="translate(504.309304 365.233438) scale(0.1 -0.1)">
       <use xlink:href="#ArialMT-33"/>
      </g>
     </g>
    </g>
    <g id="xtick_9">
     <g id="line2d_17">
      <path d="M 570.498864 354.575625
L 570.498864 21.935625
" clip-path="url(#p8142608ea3)" style="fill: none; stroke: #cccccc; stroke-width: 0.8; stroke-linecap: round"/>
     </g>
     <g id="line2d_18"/>
     <g id="text_9">
      <!-- 4 -->
      <g style="fill: #262626" transform="translate(567.718395 365.233438) scale(0.1 -0.1)">
       <use xlink:href="#ArialMT-34"/>
      </g>
     </g>
    </g>
    <g id="text_10">
     <!-- Sum Value -->
     <g style="fill: #262626" transform="translate(292.774219 378.37875) scale(0.1 -0.1)">
      <defs>
       <path id="ArialMT-53" d="M 288 1472
L 859 1522
Q 900 1178 1048 958
Q 1197 738 1509 602
Q 1822 466 2213 466
Q 2559 466 2825 569
Q 3091 672 3220 851
Q 3350 1031 3350 1244
Q 3350 1459 3225 1620
Q 3100 1781 2813 1891
Q 2628 1963 1997 2114
Q 1366 2266 1113 2400
Q 784 2572 623 2826
Q 463 3081 463 3397
Q 463 3744 659 4045
Q 856 4347 1234 4503
Q 1613 4659 2075 4659
Q 2584 4659 2973 4495
Q 3363 4331 3572 4012
Q 3781 3694 3797 3291
L 3216 3247
Q 3169 3681 2898 3903
Q 2628 4125 2100 4125
Q 1550 4125 1298 3923
Q 1047 3722 1047 3438
Q 1047 3191 1225 3031
Q 1400 2872 2139 2705
Q 2878 2538 3153 2413
Q 3553 2228 3743 1945
Q 3934 1663 3934 1294
Q 3934 928 3725 604
Q 3516 281 3123 101
Q 2731 -78 2241 -78
Q 1619 -78 1198 103
Q 778 284 539 648
Q 300 1013 288 1472
z
" transform="scale(0.015625)"/>
       <path id="ArialMT-75" d="M 2597 0
L 2597 488
Q 2209 -75 1544 -75
Q 1250 -75 995 37
Q 741 150 617 320
Q 494 491 444 738
Q 409 903 409 1263
L 409 3319
L 972 3319
L 972 1478
Q 972 1038 1006 884
Q 1059 663 1231 536
Q 1403 409 1656 409
Q 1909 409 2131 539
Q 2353 669 2445 892
Q 2538 1116 2538 1541
L 2538 3319
L 3100 3319
L 3100 0
L 2597 0
z
" transform="scale(0.015625)"/>
       <path id="ArialMT-6d" d="M 422 0
L 422 3319
L 925 3319
L 925 2853
Q 1081 3097 1340 3245
Q 1600 3394 1931 3394
Q 2300 3394 2536 3241
Q 2772 3088 2869 2813
Q 3263 3394 3894 3394
Q 4388 3394 4653 3120
Q 4919 2847 4919 2278
L 4919 0
L 4359 0
L 4359 2091
Q 4359 2428 4304 2576
Q 4250 2725 4106 2815
Q 3963 2906 3769 2906
Q 3419 2906 3187 2673
Q 2956 2441 2956 1928
L 2956 0
L 2394 0
L 2394 2156
Q 2394 2531 2256 2718
Q 2119 2906 1806 2906
Q 1569 2906 1367 2781
Q 1166 2656 1075 2415
Q 984 2175 984 1722
L 984 0
L 422 0
z
" transform="scale(0.015625)"/>
       <path id="ArialMT-20" transform="scale(0.015625)"/>
       <path id="ArialMT-56" d="M 1803 0
L 28 4581
L 684 4581
L 1875 1253
Q 2019 853 2116 503
Q 2222 878 2363 1253
L 3600 4581
L 4219 4581
L 2425 0
L 1803 0
z
" transform="scale(0.015625)"/>
       <path id="ArialMT-61" d="M 2588 409
Q 2275 144 1986 34
Q 1697 -75 1366 -75
Q 819 -75 525 192
Q 231 459 231 875
Q 231 1119 342 1320
Q 453 1522 633 1644
Q 813 1766 1038 1828
Q 1203 1872 1538 1913
Q 2219 1994 2541 2106
Q 2544 2222 2544 2253
Q 2544 2597 2384 2738
Q 2169 2928 1744 2928
Q 1347 2928 1158 2789
Q 969 2650 878 2297
L 328 2372
Q 403 2725 575 2942
Q 747 3159 1072 3276
Q 1397 3394 1825 3394
Q 2250 3394 2515 3294
Q 2781 3194 2906 3042
Q 3031 2891 3081 2659
Q 3109 2516 3109 2141
L 3109 1391
Q 3109 606 3145 398
Q 3181 191 3288 0
L 2700 0
Q 2613 175 2588 409
z
M 2541 1666
Q 2234 1541 1622 1453
Q 1275 1403 1131 1340
Q 988 1278 909 1158
Q 831 1038 831 891
Q 831 666 1001 516
Q 1172 366 1500 366
Q 1825 366 2078 508
Q 2331 650 2450 897
Q 2541 1088 2541 1459
L 2541 1666
z
" transform="scale(0.015625)"/>
       <path id="ArialMT-6c" d="M 409 0
L 409 4581
L 972 4581
L 972 0
L 409 0
z
" transform="scale(0.015625)"/>
       <path id="ArialMT-65" d="M 2694 1069
L 3275 997
Q 3138 488 2766 206
Q 2394 -75 1816 -75
Q 1088 -75 661 373
Q 234 822 234 1631
Q 234 2469 665 2931
Q 1097 3394 1784 3394
Q 2450 3394 2872 2941
Q 3294 2488 3294 1666
Q 3294 1616 3291 1516
L 816 1516
Q 847 969 1125 678
Q 1403 388 1819 388
Q 2128 388 2347 550
Q 2566 713 2694 1069
z
M 847 1978
L 2700 1978
Q 2663 2397 2488 2606
Q 2219 2931 1791 2931
Q 1403 2931 1139 2672
Q 875 2413 847 1978
z
" transform="scale(0.015625)"/>
      </defs>
      <use xlink:href="#ArialMT-53"/>
      <use xlink:href="#ArialMT-75" transform="translate(66.699219 0)"/>
      <use xlink:href="#ArialMT-6d" transform="translate(122.314453 0)"/>
      <use xlink:href="#ArialMT-20" transform="translate(205.615234 0)"/>
      <use xlink:href="#ArialMT-56" transform="translate(233.398438 0)"/>
      <use xlink:href="#ArialMT-61" transform="translate(292.722656 0)"/>
      <use xlink:href="#ArialMT-6c" transform="translate(348.337891 0)"/>
      <use xlink:href="#ArialMT-75" transform="translate(370.554688 0)"/>
      <use xlink:href="#ArialMT-65" transform="translate(426.169922 0)"/>
     </g>
    </g>
   </g>
   <g id="matplotlib.axis_2">
    <g id="ytick_1">
     <g id="line2d_19">
      <path d="M 37.8625 354.575625
L 595.8625 354.575625
" clip-path="url(#p8142608ea3)" style="fill: none; stroke: #cccccc; stroke-width: 0.8; stroke-linecap: round"/>
     </g>
     <g id="line2d_20"/>
     <g id="text_11">
      <!-- 0.0 -->
      <g style="fill: #262626" transform="translate(20.4625 358.154531) scale(0.1 -0.1)">
       <defs>
        <path id="ArialMT-2e" d="M 581 0
L 581 641
L 1222 641
L 1222 0
L 581 0
z
" transform="scale(0.015625)"/>
       </defs>
       <use xlink:href="#ArialMT-30"/>
       <use xlink:href="#ArialMT-2e" transform="translate(55.615234 0)"/>
       <use xlink:href="#ArialMT-30" transform="translate(83.398438 0)"/>
      </g>
     </g>
    </g>
    <g id="ytick_2">
     <g id="line2d_21">
      <path d="M 37.8625 313.949908
L 595.8625 313.949908
" clip-path="url(#p8142608ea3)" style="fill: none; stroke: #cccccc; stroke-width: 0.8; stroke-linecap: round"/>
     </g>
     <g id="line2d_22"/>
     <g id="text_12">
      <!-- 0.1 -->
      <g style="fill: #262626" transform="translate(20.4625 317.528815) scale(0.1 -0.1)">
       <use xlink:href="#ArialMT-30"/>
       <use xlink:href="#ArialMT-2e" transform="translate(55.615234 0)"/>
       <use xlink:href="#ArialMT-31" transform="translate(83.398438 0)"/>
      </g>
     </g>
    </g>
    <g id="ytick_3">
     <g id="line2d_23">
      <path d="M 37.8625 273.324192
L 595.8625 273.324192
" clip-path="url(#p8142608ea3)" style="fill: none; stroke: #cccccc; stroke-width: 0.8; stroke-linecap: round"/>
     </g>
     <g id="line2d_24"/>
     <g id="text_13">
      <!-- 0.2 -->
      <g style="fill: #262626" transform="translate(20.4625 276.903098) scale(0.1 -0.1)">
       <use xlink:href="#ArialMT-30"/>
       <use xlink:href="#ArialMT-2e" transform="translate(55.615234 0)"/>
       <use xlink:href="#ArialMT-32" transform="translate(83.398438 0)"/>
      </g>
     </g>
    </g>
    <g id="ytick_4">
     <g id="line2d_25">
      <path d="M 37.8625 232.698475
L 595.8625 232.698475
" clip-path="url(#p8142608ea3)" style="fill: none; stroke: #cccccc; stroke-width: 0.8; stroke-linecap: round"/>
     </g>
     <g id="line2d_26"/>
     <g id="text_14">
      <!-- 0.3 -->
      <g style="fill: #262626" transform="translate(20.4625 236.277381) scale(0.1 -0.1)">
       <use xlink:href="#ArialMT-30"/>
       <use xlink:href="#ArialMT-2e" transform="translate(55.615234 0)"/>
       <use xlink:href="#ArialMT-33" transform="translate(83.398438 0)"/>
      </g>
     </g>
    </g>
    <g id="ytick_5">
     <g id="line2d_27">
      <path d="M 37.8625 192.072759
L 595.8625 192.072759
" clip-path="url(#p8142608ea3)" style="fill: none; stroke: #cccccc; stroke-width: 0.8; stroke-linecap: round"/>
     </g>
     <g id="line2d_28"/>
     <g id="text_15">
      <!-- 0.4 -->
      <g style="fill: #262626" transform="translate(20.4625 195.651665) scale(0.1 -0.1)">
       <use xlink:href="#ArialMT-30"/>
       <use xlink:href="#ArialMT-2e" transform="translate(55.615234 0)"/>
       <use xlink:href="#ArialMT-34" transform="translate(83.398438 0)"/>
      </g>
     </g>
    </g>
    <g id="ytick_6">
     <g id="line2d_29">
      <path d="M 37.8625 151.447042
L 595.8625 151.447042
" clip-path="url(#p8142608ea3)" style="fill: none; stroke: #cccccc; stroke-width: 0.8; stroke-linecap: round"/>
     </g>
     <g id="line2d_30"/>
     <g id="text_16">
      <!-- 0.5 -->
      <g style="fill: #262626" transform="translate(20.4625 155.025948) scale(0.1 -0.1)">
       <defs>
        <path id="ArialMT-35" d="M 266 1200
L 856 1250
Q 922 819 1161 601
Q 1400 384 1738 384
Q 2144 384 2425 690
Q 2706 997 2706 1503
Q 2706 1984 2436 2262
Q 2166 2541 1728 2541
Q 1456 2541 1237 2417
Q 1019 2294 894 2097
L 366 2166
L 809 4519
L 3088 4519
L 3088 3981
L 1259 3981
L 1013 2750
Q 1425 3038 1878 3038
Q 2478 3038 2890 2622
Q 3303 2206 3303 1553
Q 3303 931 2941 478
Q 2500 -78 1738 -78
Q 1113 -78 717 272
Q 322 622 266 1200
z
" transform="scale(0.015625)"/>
       </defs>
       <use xlink:href="#ArialMT-30"/>
       <use xlink:href="#ArialMT-2e" transform="translate(55.615234 0)"/>
       <use xlink:href="#ArialMT-35" transform="translate(83.398438 0)"/>
      </g>
     </g>
    </g>
    <g id="ytick_7">
     <g id="line2d_31">
      <path d="M 37.8625 110.821325
L 595.8625 110.821325
" clip-path="url(#p8142608ea3)" style="fill: none; stroke: #cccccc; stroke-width: 0.8; stroke-linecap: round"/>
     </g>
     <g id="line2d_32"/>
     <g id="text_17">
      <!-- 0.6 -->
      <g style="fill: #262626" transform="translate(20.4625 114.400232) scale(0.1 -0.1)">
       <defs>
        <path id="ArialMT-36" d="M 3184 3459
L 2625 3416
Q 2550 3747 2413 3897
Q 2184 4138 1850 4138
Q 1581 4138 1378 3988
Q 1113 3794 959 3422
Q 806 3050 800 2363
Q 1003 2672 1297 2822
Q 1591 2972 1913 2972
Q 2475 2972 2870 2558
Q 3266 2144 3266 1488
Q 3266 1056 3080 686
Q 2894 316 2569 119
Q 2244 -78 1831 -78
Q 1128 -78 684 439
Q 241 956 241 2144
Q 241 3472 731 4075
Q 1159 4600 1884 4600
Q 2425 4600 2770 4297
Q 3116 3994 3184 3459
z
M 888 1484
Q 888 1194 1011 928
Q 1134 663 1356 523
Q 1578 384 1822 384
Q 2178 384 2434 671
Q 2691 959 2691 1453
Q 2691 1928 2437 2201
Q 2184 2475 1800 2475
Q 1419 2475 1153 2201
Q 888 1928 888 1484
z
" transform="scale(0.015625)"/>
       </defs>
       <use xlink:href="#ArialMT-30"/>
       <use xlink:href="#ArialMT-2e" transform="translate(55.615234 0)"/>
       <use xlink:href="#ArialMT-36" transform="translate(83.398438 0)"/>
      </g>
     </g>
    </g>
    <g id="ytick_8">
     <g id="line2d_33">
      <path d="M 37.8625 70.195609
L 595.8625 70.195609
" clip-path="url(#p8142608ea3)" style="fill: none; stroke: #cccccc; stroke-width: 0.8; stroke-linecap: round"/>
     </g>
     <g id="line2d_34"/>
     <g id="text_18">
      <!-- 0.7 -->
      <g style="fill: #262626" transform="translate(20.4625 73.774515) scale(0.1 -0.1)">
       <defs>
        <path id="ArialMT-37" d="M 303 3981
L 303 4522
L 3269 4522
L 3269 4084
Q 2831 3619 2401 2847
Q 1972 2075 1738 1259
Q 1569 684 1522 0
L 944 0
Q 953 541 1156 1306
Q 1359 2072 1739 2783
Q 2119 3494 2547 3981
L 303 3981
z
" transform="scale(0.015625)"/>
       </defs>
       <use xlink:href="#ArialMT-30"/>
       <use xlink:href="#ArialMT-2e" transform="translate(55.615234 0)"/>
       <use xlink:href="#ArialMT-37" transform="translate(83.398438 0)"/>
      </g>
     </g>
    </g>
    <g id="ytick_9">
     <g id="line2d_35">
      <path d="M 37.8625 29.569892
L 595.8625 29.569892
" clip-path="url(#p8142608ea3)" style="fill: none; stroke: #cccccc; stroke-width: 0.8; stroke-linecap: round"/>
     </g>
     <g id="line2d_36"/>
     <g id="text_19">
      <!-- 0.8 -->
      <g style="fill: #262626" transform="translate(20.4625 33.148798) scale(0.1 -0.1)">
       <defs>
        <path id="ArialMT-38" d="M 1131 2484
Q 781 2613 612 2850
Q 444 3088 444 3419
Q 444 3919 803 4259
Q 1163 4600 1759 4600
Q 2359 4600 2725 4251
Q 3091 3903 3091 3403
Q 3091 3084 2923 2848
Q 2756 2613 2416 2484
Q 2838 2347 3058 2040
Q 3278 1734 3278 1309
Q 3278 722 2862 322
Q 2447 -78 1769 -78
Q 1091 -78 675 323
Q 259 725 259 1325
Q 259 1772 486 2073
Q 713 2375 1131 2484
z
M 1019 3438
Q 1019 3113 1228 2906
Q 1438 2700 1772 2700
Q 2097 2700 2305 2904
Q 2513 3109 2513 3406
Q 2513 3716 2298 3927
Q 2084 4138 1766 4138
Q 1444 4138 1231 3931
Q 1019 3725 1019 3438
z
M 838 1322
Q 838 1081 952 856
Q 1066 631 1291 507
Q 1516 384 1775 384
Q 2178 384 2440 643
Q 2703 903 2703 1303
Q 2703 1709 2433 1975
Q 2163 2241 1756 2241
Q 1359 2241 1098 1978
Q 838 1716 838 1322
z
" transform="scale(0.015625)"/>
       </defs>
       <use xlink:href="#ArialMT-30"/>
       <use xlink:href="#ArialMT-2e" transform="translate(55.615234 0)"/>
       <use xlink:href="#ArialMT-38" transform="translate(83.398438 0)"/>
      </g>
     </g>
    </g>
    <g id="text_20">
     <!-- Density -->
     <g style="fill: #262626" transform="translate(14.357813 204.9275) rotate(-90) scale(0.1 -0.1)">
      <defs>
       <path id="ArialMT-44" d="M 494 0
L 494 4581
L 2072 4581
Q 2606 4581 2888 4516
Q 3281 4425 3559 4188
Q 3922 3881 4101 3404
Q 4281 2928 4281 2316
Q 4281 1794 4159 1391
Q 4038 988 3847 723
Q 3656 459 3429 307
Q 3203 156 2883 78
Q 2563 0 2147 0
L 494 0
z
M 1100 541
L 2078 541
Q 2531 541 2789 625
Q 3047 709 3200 863
Q 3416 1078 3536 1442
Q 3656 1806 3656 2325
Q 3656 3044 3420 3430
Q 3184 3816 2847 3947
Q 2603 4041 2063 4041
L 1100 4041
L 1100 541
z
" transform="scale(0.015625)"/>
       <path id="ArialMT-6e" d="M 422 0
L 422 3319
L 928 3319
L 928 2847
Q 1294 3394 1984 3394
Q 2284 3394 2536 3286
Q 2788 3178 2913 3003
Q 3038 2828 3088 2588
Q 3119 2431 3119 2041
L 3119 0
L 2556 0
L 2556 2019
Q 2556 2363 2490 2533
Q 2425 2703 2258 2804
Q 2091 2906 1866 2906
Q 1506 2906 1245 2678
Q 984 2450 984 1813
L 984 0
L 422 0
z
" transform="scale(0.015625)"/>
       <path id="ArialMT-73" d="M 197 991
L 753 1078
Q 800 744 1014 566
Q 1228 388 1613 388
Q 2000 388 2187 545
Q 2375 703 2375 916
Q 2375 1106 2209 1216
Q 2094 1291 1634 1406
Q 1016 1563 777 1677
Q 538 1791 414 1992
Q 291 2194 291 2438
Q 291 2659 392 2848
Q 494 3038 669 3163
Q 800 3259 1026 3326
Q 1253 3394 1513 3394
Q 1903 3394 2198 3281
Q 2494 3169 2634 2976
Q 2775 2784 2828 2463
L 2278 2388
Q 2241 2644 2061 2787
Q 1881 2931 1553 2931
Q 1166 2931 1000 2803
Q 834 2675 834 2503
Q 834 2394 903 2306
Q 972 2216 1119 2156
Q 1203 2125 1616 2013
Q 2213 1853 2448 1751
Q 2684 1650 2818 1456
Q 2953 1263 2953 975
Q 2953 694 2789 445
Q 2625 197 2315 61
Q 2006 -75 1616 -75
Q 969 -75 630 194
Q 291 463 197 991
z
" transform="scale(0.015625)"/>
       <path id="ArialMT-69" d="M 425 3934
L 425 4581
L 988 4581
L 988 3934
L 425 3934
z
M 425 0
L 425 3319
L 988 3319
L 988 0
L 425 0
z
" transform="scale(0.015625)"/>
       <path id="ArialMT-74" d="M 1650 503
L 1731 6
Q 1494 -44 1306 -44
Q 1000 -44 831 53
Q 663 150 594 308
Q 525 466 525 972
L 525 2881
L 113 2881
L 113 3319
L 525 3319
L 525 4141
L 1084 4478
L 1084 3319
L 1650 3319
L 1650 2881
L 1084 2881
L 1084 941
Q 1084 700 1114 631
Q 1144 563 1211 522
Q 1278 481 1403 481
Q 1497 481 1650 503
z
" transform="scale(0.015625)"/>
       <path id="ArialMT-79" d="M 397 -1278
L 334 -750
Q 519 -800 656 -800
Q 844 -800 956 -737
Q 1069 -675 1141 -563
Q 1194 -478 1313 -144
Q 1328 -97 1363 -6
L 103 3319
L 709 3319
L 1400 1397
Q 1534 1031 1641 628
Q 1738 1016 1872 1384
L 2581 3319
L 3144 3319
L 1881 -56
Q 1678 -603 1566 -809
Q 1416 -1088 1222 -1217
Q 1028 -1347 759 -1347
Q 597 -1347 397 -1278
z
" transform="scale(0.015625)"/>
      </defs>
      <use xlink:href="#ArialMT-44"/>
      <use xlink:href="#ArialMT-65" transform="translate(72.216797 0)"/>
      <use xlink:href="#ArialMT-6e" transform="translate(127.832031 0)"/>
      <use xlink:href="#ArialMT-73" transform="translate(183.447266 0)"/>
      <use xlink:href="#ArialMT-69" transform="translate(233.447266 0)"/>
      <use xlink:href="#ArialMT-74" transform="translate(255.664062 0)"/>
      <use xlink:href="#ArialMT-79" transform="translate(283.447266 0)"/>
     </g>
    </g>
   </g>
   <g id="patch_3">
    <path d="M 228.889354 354.575625
L 232.450924 354.575625
L 232.450924 349.512611
L 228.889354 349.512611
z
" clip-path="url(#p8142608ea3)" style="fill: #ffa500; opacity: 0.5"/>
   </g>
   <g id="patch_4">
    <path d="M 232.450924 354.575625
L 236.012494 354.575625
L 236.012494 345.896173
L 232.450924 345.896173
z
" clip-path="url(#p8142608ea3)" style="fill: #ffa500; opacity: 0.5"/>
   </g>
   <g id="patch_5">
    <path d="M 236.012494 354.575625
L 239.574065 354.575625
L 239.574065 335.770146
L 236.012494 335.770146
z
" clip-path="url(#p8142608ea3)" style="fill: #ffa500; opacity: 0.5"/>
   </g>
   <g id="patch_6">
    <path d="M 239.574065 354.575625
L 243.135635 354.575625
L 243.135635 335.770146
L 239.574065 335.770146
z
" clip-path="url(#p8142608ea3)" style="fill: #ffa500; opacity: 0.5"/>
   </g>
   <g id="patch_7">
    <path d="M 243.135635 354.575625
L 246.697205 354.575625
L 246.697205 320.581104
L 243.135635 320.581104
z
" clip-path="url(#p8142608ea3)" style="fill: #ffa500; opacity: 0.5"/>
   </g>
   <g id="patch_8">
    <path d="M 246.697205 354.575625
L 250.258775 354.575625
L 250.258775 319.134529
L 246.697205 319.134529
z
" clip-path="url(#p8142608ea3)" style="fill: #ffa500; opacity: 0.5"/>
   </g>
   <g id="patch_9">
    <path d="M 250.258775 354.575625
L 253.820345 354.575625
L 253.820345 304.668776
L 250.258775 304.668776
z
" clip-path="url(#p8142608ea3)" style="fill: #ffa500; opacity: 0.5"/>
   </g>
   <g id="patch_10">
    <path d="M 253.820345 354.575625
L 257.381915 354.575625
L 257.381915 301.052337
L 253.820345 301.052337
z
" clip-path="url(#p8142608ea3)" style="fill: #ffa500; opacity: 0.5"/>
   </g>
   <g id="patch_11">
    <path d="M 257.381915 354.575625
L 260.943485 354.575625
L 260.943485 281.52357
L 257.381915 281.52357
z
" clip-path="url(#p8142608ea3)" style="fill: #ffa500; opacity: 0.5"/>
   </g>
   <g id="patch_12">
    <path d="M 260.943485 354.575625
L 264.505055 354.575625
L 264.505055 276.460557
L 260.943485 276.460557
z
" clip-path="url(#p8142608ea3)" style="fill: #ffa500; opacity: 0.5"/>
   </g>
   <g id="patch_13">
    <path d="M 264.505055 354.575625
L 268.066626 354.575625
L 268.066626 263.441378
L 264.505055 263.441378
z
" clip-path="url(#p8142608ea3)" style="fill: #ffa500; opacity: 0.5"/>
   </g>
   <g id="patch_14">
    <path d="M 268.066626 354.575625
L 271.628196 354.575625
L 271.628196 230.170146
L 268.066626 230.170146
z
" clip-path="url(#p8142608ea3)" style="fill: #ffa500; opacity: 0.5"/>
   </g>
   <g id="patch_15">
    <path d="M 271.628196 354.575625
L 275.189766 354.575625
L 275.189766 225.107132
L 271.628196 225.107132
z
" clip-path="url(#p8142608ea3)" style="fill: #ffa500; opacity: 0.5"/>
   </g>
   <g id="patch_16">
    <path d="M 275.189766 354.575625
L 278.751336 354.575625
L 278.751336 186.772885
L 275.189766 186.772885
z
" clip-path="url(#p8142608ea3)" style="fill: #ffa500; opacity: 0.5"/>
   </g>
   <g id="patch_17">
    <path d="M 278.751336 354.575625
L 282.312906 354.575625
L 282.312906 174.476995
L 278.751336 174.476995
z
" clip-path="url(#p8142608ea3)" style="fill: #ffa500; opacity: 0.5"/>
   </g>
   <g id="patch_18">
    <path d="M 282.312906 354.575625
L 285.874476 354.575625
L 285.874476 163.62768
L 282.312906 163.62768
z
" clip-path="url(#p8142608ea3)" style="fill: #ffa500; opacity: 0.5"/>
   </g>
   <g id="patch_19">
    <path d="M 285.874476 354.575625
L 289.436046 354.575625
L 289.436046 138.312611
L 285.874476 138.312611
z
" clip-path="url(#p8142608ea3)" style="fill: #ffa500; opacity: 0.5"/>
   </g>
   <g id="patch_20">
    <path d="M 289.436046 354.575625
L 292.997616 354.575625
L 292.997616 107.934529
L 289.436046 107.934529
z
" clip-path="url(#p8142608ea3)" style="fill: #ffa500; opacity: 0.5"/>
   </g>
   <g id="patch_21">
    <path d="M 292.997616 354.575625
L 296.559186 354.575625
L 296.559186 130.356447
L 292.997616 130.356447
z
" clip-path="url(#p8142608ea3)" style="fill: #ffa500; opacity: 0.5"/>
   </g>
   <g id="patch_22">
    <path d="M 296.559186 354.575625
L 300.120757 354.575625
L 300.120757 84.789324
L 296.559186 84.789324
z
" clip-path="url(#p8142608ea3)" style="fill: #ffa500; opacity: 0.5"/>
   </g>
   <g id="patch_23">
    <path d="M 300.120757 354.575625
L 303.682327 354.575625
L 303.682327 85.512611
L 300.120757 85.512611
z
" clip-path="url(#p8142608ea3)" style="fill: #ffa500; opacity: 0.5"/>
   </g>
   <g id="patch_24">
    <path d="M 303.682327 354.575625
L 307.243897 354.575625
L 307.243897 54.411241
L 303.682327 54.411241
z
" clip-path="url(#p8142608ea3)" style="fill: #ffa500; opacity: 0.5"/>
   </g>
   <g id="patch_25">
    <path d="M 307.243897 354.575625
L 310.805467 354.575625
L 310.805467 37.775625
L 307.243897 37.775625
z
" clip-path="url(#p8142608ea3)" style="fill: #ffa500; opacity: 0.5"/>
   </g>
   <g id="patch_26">
    <path d="M 310.805467 354.575625
L 314.367037 354.575625
L 314.367037 71.770146
L 310.805467 71.770146
z
" clip-path="url(#p8142608ea3)" style="fill: #ffa500; opacity: 0.5"/>
   </g>
   <g id="patch_27">
    <path d="M 314.367037 354.575625
L 317.928607 354.575625
L 317.928607 48.62494
L 314.367037 48.62494
z
" clip-path="url(#p8142608ea3)" style="fill: #ffa500; opacity: 0.5"/>
   </g>
   <g id="patch_28">
    <path d="M 317.928607 354.575625
L 321.490177 354.575625
L 321.490177 58.02768
L 317.928607 58.02768
z
" clip-path="url(#p8142608ea3)" style="fill: #ffa500; opacity: 0.5"/>
   </g>
   <g id="patch_29">
    <path d="M 321.490177 354.575625
L 325.051747 354.575625
L 325.051747 51.518091
L 321.490177 51.518091
z
" clip-path="url(#p8142608ea3)" style="fill: #ffa500; opacity: 0.5"/>
   </g>
   <g id="patch_30">
    <path d="M 325.051747 354.575625
L 328.613318 354.575625
L 328.613318 80.449598
L 325.051747 80.449598
z
" clip-path="url(#p8142608ea3)" style="fill: #ffa500; opacity: 0.5"/>
   </g>
   <g id="patch_31">
    <path d="M 328.613318 354.575625
L 332.174888 354.575625
L 332.174888 75.386584
L 328.613318 75.386584
z
" clip-path="url(#p8142608ea3)" style="fill: #ffa500; opacity: 0.5"/>
   </g>
   <g id="patch_32">
    <path d="M 332.174888 354.575625
L 335.736458 354.575625
L 335.736458 58.02768
L 332.174888 58.02768
z
" clip-path="url(#p8142608ea3)" style="fill: #ffa500; opacity: 0.5"/>
   </g>
   <g id="patch_33">
    <path d="M 335.736458 354.575625
L 339.298028 354.575625
L 339.298028 70.32357
L 335.736458 70.32357
z
" clip-path="url(#p8142608ea3)" style="fill: #ffa500; opacity: 0.5"/>
   </g>
   <g id="patch_34">
    <path d="M 339.298028 354.575625
L 342.859598 354.575625
L 342.859598 111.550967
L 339.298028 111.550967
z
" clip-path="url(#p8142608ea3)" style="fill: #ffa500; opacity: 0.5"/>
   </g>
   <g id="patch_35">
    <path d="M 342.859598 354.575625
L 346.421168 354.575625
L 346.421168 152.055077
L 342.859598 152.055077
z
" clip-path="url(#p8142608ea3)" style="fill: #ffa500; opacity: 0.5"/>
   </g>
   <g id="patch_36">
    <path d="M 346.421168 354.575625
L 349.982738 354.575625
L 349.982738 136.142748
L 346.421168 136.142748
z
" clip-path="url(#p8142608ea3)" style="fill: #ffa500; opacity: 0.5"/>
   </g>
   <g id="patch_37">
    <path d="M 349.982738 354.575625
L 353.544308 354.575625
L 353.544308 168.690693
L 349.982738 168.690693
z
" clip-path="url(#p8142608ea3)" style="fill: #ffa500; opacity: 0.5"/>
   </g>
   <g id="patch_38">
    <path d="M 353.544308 354.575625
L 357.105879 354.575625
L 357.105879 191.835899
L 353.544308 191.835899
z
" clip-path="url(#p8142608ea3)" style="fill: #ffa500; opacity: 0.5"/>
   </g>
   <g id="patch_39">
    <path d="M 357.105879 354.575625
L 360.667449 354.575625
L 360.667449 199.792063
L 357.105879 199.792063
z
" clip-path="url(#p8142608ea3)" style="fill: #ffa500; opacity: 0.5"/>
   </g>
   <g id="patch_40">
    <path d="M 360.667449 354.575625
L 364.229019 354.575625
L 364.229019 225.83042
L 360.667449 225.83042
z
" clip-path="url(#p8142608ea3)" style="fill: #ffa500; opacity: 0.5"/>
   </g>
   <g id="patch_41">
    <path d="M 364.229019 354.575625
L 367.790589 354.575625
L 367.790589 254.038639
L 364.229019 254.038639
z
" clip-path="url(#p8142608ea3)" style="fill: #ffa500; opacity: 0.5"/>
   </g>
   <g id="patch_42">
    <path d="M 367.790589 354.575625
L 371.352159 354.575625
L 371.352159 251.868776
L 367.790589 251.868776
z
" clip-path="url(#p8142608ea3)" style="fill: #ffa500; opacity: 0.5"/>
   </g>
   <g id="patch_43">
    <path d="M 371.352159 354.575625
L 374.913729 354.575625
L 374.913729 280.076995
L 371.352159 280.076995
z
" clip-path="url(#p8142608ea3)" style="fill: #ffa500; opacity: 0.5"/>
   </g>
   <g id="patch_44">
    <path d="M 374.913729 354.575625
L 378.475299 354.575625
L 378.475299 290.203022
L 374.913729 290.203022
z
" clip-path="url(#p8142608ea3)" style="fill: #ffa500; opacity: 0.5"/>
   </g>
   <g id="patch_45">
    <path d="M 378.475299 354.575625
L 382.036869 354.575625
L 382.036869 304.668776
L 378.475299 304.668776
z
" clip-path="url(#p8142608ea3)" style="fill: #ffa500; opacity: 0.5"/>
   </g>
   <g id="patch_46">
    <path d="M 382.036869 354.575625
L 385.598439 354.575625
L 385.598439 322.750967
L 382.036869 322.750967
z
" clip-path="url(#p8142608ea3)" style="fill: #ffa500; opacity: 0.5"/>
   </g>
   <g id="patch_47">
    <path d="M 385.598439 354.575625
L 389.16001 354.575625
L 389.16001 316.964666
L 385.598439 316.964666
z
" clip-path="url(#p8142608ea3)" style="fill: #ffa500; opacity: 0.5"/>
   </g>
   <g id="patch_48">
    <path d="M 389.16001 354.575625
L 392.72158 354.575625
L 392.72158 333.600283
L 389.16001 333.600283
z
" clip-path="url(#p8142608ea3)" style="fill: #ffa500; opacity: 0.5"/>
   </g>
   <g id="patch_49">
    <path d="M 392.72158 354.575625
L 396.28315 354.575625
L 396.28315 341.556447
L 392.72158 341.556447
z
" clip-path="url(#p8142608ea3)" style="fill: #ffa500; opacity: 0.5"/>
   </g>
   <g id="patch_50">
    <path d="M 396.28315 354.575625
L 399.84472 354.575625
L 399.84472 346.619461
L 396.28315 346.619461
z
" clip-path="url(#p8142608ea3)" style="fill: #ffa500; opacity: 0.5"/>
   </g>
   <g id="patch_51">
    <path d="M 399.84472 354.575625
L 403.40629 354.575625
L 403.40629 349.512611
L 399.84472 349.512611
z
" clip-path="url(#p8142608ea3)" style="fill: #ffa500; opacity: 0.5"/>
   </g>
   <g id="patch_52">
    <path d="M 403.40629 354.575625
L 406.96786 354.575625
L 406.96786 350.959187
L 403.40629 350.959187
z
" clip-path="url(#p8142608ea3)" style="fill: #ffa500; opacity: 0.5"/>
   </g>
   <g id="patch_53">
    <path d="M 167.071676 354.575625
L 173.118279 354.575625
L 173.118279 353.297532
L 167.071676 353.297532
z
" clip-path="url(#p8142608ea3)" style="fill: #800080; opacity: 0.5"/>
   </g>
   <g id="patch_54">
    <path d="M 173.118279 354.575625
L 179.164882 354.575625
L 179.164882 353.297532
L 173.118279 353.297532
z
" clip-path="url(#p8142608ea3)" style="fill: #800080; opacity: 0.5"/>
   </g>
   <g id="patch_55">
    <path d="M 179.164882 354.575625
L 185.211484 354.575625
L 185.211484 352.871501
L 179.164882 352.871501
z
" clip-path="url(#p8142608ea3)" style="fill: #800080; opacity: 0.5"/>
   </g>
   <g id="patch_56">
    <path d="M 185.211484 354.575625
L 191.258087 354.575625
L 191.258087 351.167378
L 185.211484 351.167378
z
" clip-path="url(#p8142608ea3)" style="fill: #800080; opacity: 0.5"/>
   </g>
   <g id="patch_57">
    <path d="M 191.258087 354.575625
L 197.30469 354.575625
L 197.30469 351.167378
L 191.258087 351.167378
z
" clip-path="url(#p8142608ea3)" style="fill: #800080; opacity: 0.5"/>
   </g>
   <g id="patch_58">
    <path d="M 197.30469 354.575625
L 203.351293 354.575625
L 203.351293 349.037223
L 197.30469 349.037223
z
" clip-path="url(#p8142608ea3)" style="fill: #800080; opacity: 0.5"/>
   </g>
   <g id="patch_59">
    <path d="M 203.351293 354.575625
L 209.397895 354.575625
L 209.397895 346.481037
L 203.351293 346.481037
z
" clip-path="url(#p8142608ea3)" style="fill: #800080; opacity: 0.5"/>
   </g>
   <g id="patch_60">
    <path d="M 209.397895 354.575625
L 215.444498 354.575625
L 215.444498 343.07279
L 209.397895 343.07279
z
" clip-path="url(#p8142608ea3)" style="fill: #800080; opacity: 0.5"/>
   </g>
   <g id="patch_61">
    <path d="M 215.444498 354.575625
L 221.491101 354.575625
L 221.491101 332.422017
L 215.444498 332.422017
z
" clip-path="url(#p8142608ea3)" style="fill: #800080; opacity: 0.5"/>
   </g>
   <g id="patch_62">
    <path d="M 221.491101 354.575625
L 227.537703 354.575625
L 227.537703 323.901398
L 221.491101 323.901398
z
" clip-path="url(#p8142608ea3)" style="fill: #800080; opacity: 0.5"/>
   </g>
   <g id="patch_63">
    <path d="M 227.537703 354.575625
L 233.584306 354.575625
L 233.584306 306.43413
L 227.537703 306.43413
z
" clip-path="url(#p8142608ea3)" style="fill: #800080; opacity: 0.5"/>
   </g>
   <g id="patch_64">
    <path d="M 233.584306 354.575625
L 239.630909 354.575625
L 239.630909 302.173821
L 233.584306 302.173821
z
" clip-path="url(#p8142608ea3)" style="fill: #800080; opacity: 0.5"/>
   </g>
   <g id="patch_65">
    <path d="M 239.630909 354.575625
L 245.677511 354.575625
L 245.677511 298.765573
L 239.630909 298.765573
z
" clip-path="url(#p8142608ea3)" style="fill: #800080; opacity: 0.5"/>
   </g>
   <g id="patch_66">
    <path d="M 245.677511 354.575625
L 251.724114 354.575625
L 251.724114 279.594182
L 245.677511 279.594182
z
" clip-path="url(#p8142608ea3)" style="fill: #800080; opacity: 0.5"/>
   </g>
   <g id="patch_67">
    <path d="M 251.724114 354.575625
L 257.770717 354.575625
L 257.770717 262.978975
L 251.724114 262.978975
z
" clip-path="url(#p8142608ea3)" style="fill: #800080; opacity: 0.5"/>
   </g>
   <g id="patch_68">
    <path d="M 257.770717 354.575625
L 263.817319 354.575625
L 263.817319 238.269182
L 257.770717 238.269182
z
" clip-path="url(#p8142608ea3)" style="fill: #800080; opacity: 0.5"/>
   </g>
   <g id="patch_69">
    <path d="M 263.817319 354.575625
L 269.863922 354.575625
L 269.863922 217.393666
L 263.817319 217.393666
z
" clip-path="url(#p8142608ea3)" style="fill: #800080; opacity: 0.5"/>
   </g>
   <g id="patch_70">
    <path d="M 269.863922 354.575625
L 275.910525 354.575625
L 275.910525 215.263512
L 269.863922 215.263512
z
" clip-path="url(#p8142608ea3)" style="fill: #800080; opacity: 0.5"/>
   </g>
   <g id="patch_71">
    <path d="M 275.910525 354.575625
L 281.957128 354.575625
L 281.957128 212.707326
L 275.910525 212.707326
z
" clip-path="url(#p8142608ea3)" style="fill: #800080; opacity: 0.5"/>
   </g>
   <g id="patch_72">
    <path d="M 281.957128 354.575625
L 288.00373 354.575625
L 288.00373 188.849594
L 281.957128 188.849594
z
" clip-path="url(#p8142608ea3)" style="fill: #800080; opacity: 0.5"/>
   </g>
   <g id="patch_73">
    <path d="M 288.00373 354.575625
L 294.050333 354.575625
L 294.050333 161.157584
L 288.00373 161.157584
z
" clip-path="url(#p8142608ea3)" style="fill: #800080; opacity: 0.5"/>
   </g>
   <g id="patch_74">
    <path d="M 294.050333 354.575625
L 300.096936 354.575625
L 300.096936 147.524594
L 294.050333 147.524594
z
" clip-path="url(#p8142608ea3)" style="fill: #800080; opacity: 0.5"/>
   </g>
   <g id="patch_75">
    <path d="M 300.096936 354.575625
L 306.143538 354.575625
L 306.143538 136.021759
L 300.096936 136.021759
z
" clip-path="url(#p8142608ea3)" style="fill: #800080; opacity: 0.5"/>
   </g>
   <g id="patch_76">
    <path d="M 306.143538 354.575625
L 312.190141 354.575625
L 312.190141 118.12846
L 306.143538 118.12846
z
" clip-path="url(#p8142608ea3)" style="fill: #800080; opacity: 0.5"/>
   </g>
   <g id="patch_77">
    <path d="M 312.190141 354.575625
L 318.236744 354.575625
L 318.236744 133.891604
L 312.190141 133.891604
z
" clip-path="url(#p8142608ea3)" style="fill: #800080; opacity: 0.5"/>
   </g>
   <g id="patch_78">
    <path d="M 318.236744 354.575625
L 324.283346 354.575625
L 324.283346 136.44779
L 318.236744 136.44779
z
" clip-path="url(#p8142608ea3)" style="fill: #800080; opacity: 0.5"/>
   </g>
   <g id="patch_79">
    <path d="M 324.283346 354.575625
L 330.329949 354.575625
L 330.329949 154.341089
L 324.283346 154.341089
z
" clip-path="url(#p8142608ea3)" style="fill: #800080; opacity: 0.5"/>
   </g>
   <g id="patch_80">
    <path d="M 330.329949 354.575625
L 336.376552 354.575625
L 336.376552 130.483357
L 330.329949 130.483357
z
" clip-path="url(#p8142608ea3)" style="fill: #800080; opacity: 0.5"/>
   </g>
   <g id="patch_81">
    <path d="M 336.376552 354.575625
L 342.423154 354.575625
L 342.423154 152.210934
L 336.376552 152.210934
z
" clip-path="url(#p8142608ea3)" style="fill: #800080; opacity: 0.5"/>
   </g>
   <g id="patch_82">
    <path d="M 342.423154 354.575625
L 348.469757 354.575625
L 348.469757 177.77279
L 342.423154 177.77279
z
" clip-path="url(#p8142608ea3)" style="fill: #800080; opacity: 0.5"/>
   </g>
   <g id="patch_83">
    <path d="M 348.469757 354.575625
L 354.51636 354.575625
L 354.51636 181.181037
L 348.469757 181.181037
z
" clip-path="url(#p8142608ea3)" style="fill: #800080; opacity: 0.5"/>
   </g>
   <g id="patch_84">
    <path d="M 354.51636 354.575625
L 360.562963 354.575625
L 360.562963 202.482584
L 354.51636 202.482584
z
" clip-path="url(#p8142608ea3)" style="fill: #800080; opacity: 0.5"/>
   </g>
   <g id="patch_85">
    <path d="M 360.562963 354.575625
L 366.609565 354.575625
L 366.609565 207.168924
L 360.562963 207.168924
z
" clip-path="url(#p8142608ea3)" style="fill: #800080; opacity: 0.5"/>
   </g>
   <g id="patch_86">
    <path d="M 366.609565 354.575625
L 372.656168 354.575625
L 372.656168 239.547274
L 366.609565 239.547274
z
" clip-path="url(#p8142608ea3)" style="fill: #800080; opacity: 0.5"/>
   </g>
   <g id="patch_87">
    <path d="M 372.656168 354.575625
L 378.702771 354.575625
L 378.702771 246.363769
L 372.656168 246.363769
z
" clip-path="url(#p8142608ea3)" style="fill: #800080; opacity: 0.5"/>
   </g>
   <g id="patch_88">
    <path d="M 378.702771 354.575625
L 384.749373 354.575625
L 384.749373 267.239285
L 378.702771 267.239285
z
" clip-path="url(#p8142608ea3)" style="fill: #800080; opacity: 0.5"/>
   </g>
   <g id="patch_89">
    <path d="M 384.749373 354.575625
L 390.795976 354.575625
L 390.795976 280.446244
L 384.749373 280.446244
z
" clip-path="url(#p8142608ea3)" style="fill: #800080; opacity: 0.5"/>
   </g>
   <g id="patch_90">
    <path d="M 390.795976 354.575625
L 396.842579 354.575625
L 396.842579 303.025883
L 390.795976 303.025883
z
" clip-path="url(#p8142608ea3)" style="fill: #800080; opacity: 0.5"/>
   </g>
   <g id="patch_91">
    <path d="M 396.842579 354.575625
L 402.889181 354.575625
L 402.889181 318.789027
L 396.842579 318.789027
z
" clip-path="url(#p8142608ea3)" style="fill: #800080; opacity: 0.5"/>
   </g>
   <g id="patch_92">
    <path d="M 402.889181 354.575625
L 408.935784 354.575625
L 408.935784 326.031553
L 402.889181 326.031553
z
" clip-path="url(#p8142608ea3)" style="fill: #800080; opacity: 0.5"/>
   </g>
   <g id="patch_93">
    <path d="M 408.935784 354.575625
L 414.982387 354.575625
L 414.982387 331.569955
L 408.935784 331.569955
z
" clip-path="url(#p8142608ea3)" style="fill: #800080; opacity: 0.5"/>
   </g>
   <g id="patch_94">
    <path d="M 414.982387 354.575625
L 421.02899 354.575625
L 421.02899 336.682326
L 414.982387 336.682326
z
" clip-path="url(#p8142608ea3)" style="fill: #800080; opacity: 0.5"/>
   </g>
   <g id="patch_95">
    <path d="M 421.02899 354.575625
L 427.075592 354.575625
L 427.075592 340.090573
L 421.02899 340.090573
z
" clip-path="url(#p8142608ea3)" style="fill: #800080; opacity: 0.5"/>
   </g>
   <g id="patch_96">
    <path d="M 427.075592 354.575625
L 433.122195 354.575625
L 433.122195 346.907068
L 427.075592 346.907068
z
" clip-path="url(#p8142608ea3)" style="fill: #800080; opacity: 0.5"/>
   </g>
   <g id="patch_97">
    <path d="M 433.122195 354.575625
L 439.168798 354.575625
L 439.168798 349.463254
L 433.122195 349.463254
z
" clip-path="url(#p8142608ea3)" style="fill: #800080; opacity: 0.5"/>
   </g>
   <g id="patch_98">
    <path d="M 439.168798 354.575625
L 445.2154 354.575625
L 445.2154 350.315316
L 439.168798 350.315316
z
" clip-path="url(#p8142608ea3)" style="fill: #800080; opacity: 0.5"/>
   </g>
   <g id="patch_99">
    <path d="M 445.2154 354.575625
L 451.262003 354.575625
L 451.262003 352.871501
L 445.2154 352.871501
z
" clip-path="url(#p8142608ea3)" style="fill: #800080; opacity: 0.5"/>
   </g>
   <g id="patch_100">
    <path d="M 451.262003 354.575625
L 457.308606 354.575625
L 457.308606 353.297532
L 451.262003 353.297532
z
" clip-path="url(#p8142608ea3)" style="fill: #800080; opacity: 0.5"/>
   </g>
   <g id="patch_101">
    <path d="M 457.308606 354.575625
L 463.355208 354.575625
L 463.355208 353.723563
L 457.308606 353.723563
z
" clip-path="url(#p8142608ea3)" style="fill: #800080; opacity: 0.5"/>
   </g>
   <g id="patch_102">
    <path d="M 463.355208 354.575625
L 469.401811 354.575625
L 469.401811 354.149594
L 463.355208 354.149594
z
" clip-path="url(#p8142608ea3)" style="fill: #800080; opacity: 0.5"/>
   </g>
   <g id="line2d_37">
    <path d="M 63.226136 354.575599
L 68.350103 354.575576
L 73.47407 354.575533
L 78.598037 354.575456
L 83.722004 354.575317
L 88.845971 354.57507
L 93.969938 354.574639
L 99.093905 354.573896
L 104.217872 354.572632
L 109.341839 354.570513
L 114.465806 354.567005
L 119.589773 354.561281
L 124.71374 354.552063
L 129.837707 354.537424
L 134.961674 354.514494
L 140.08564 354.47907
L 145.209607 354.425098
L 150.333574 354.344
L 155.457541 354.223834
L 160.581508 354.048259
L 165.705475 353.795315
L 170.829442 353.43603
L 175.953409 352.932911
L 181.077376 352.238394
L 186.201343 351.293392
L 191.32531 350.026107
L 196.449277 348.351339
L 201.573244 346.170545
L 206.697211 343.372935
L 211.821178 339.837883
L 216.945145 335.438896
L 222.069112 330.04929
L 227.193079 323.549627
L 232.317045 315.836749
L 237.441012 306.834083
L 242.564979 296.502656
L 247.688946 284.85203
L 252.812913 271.950205
L 257.93688 257.931436
L 263.060847 243.000861
L 268.184814 227.434993
L 273.308781 211.577311
L 278.432748 195.828588
L 283.556715 180.632007
L 288.680682 166.453648
L 293.804649 153.759432
L 298.928616 142.990036
L 304.052583 134.535643
L 309.17655 128.712528
L 314.300517 125.743434
L 319.424483 125.743434
L 324.54845 128.712528
L 329.672417 134.535643
L 334.796384 142.990036
L 339.920351 153.759432
L 345.044318 166.453648
L 350.168285 180.632007
L 355.292252 195.828588
L 360.416219 211.577311
L 365.540186 227.434993
L 370.664153 243.000861
L 375.78812 257.931436
L 380.912087 271.950205
L 386.036054 284.85203
L 391.160021 296.502656
L 396.283988 306.834083
L 401.407955 315.836749
L 406.531921 323.549627
L 411.655888 330.04929
L 416.779855 335.438896
L 421.903822 339.837883
L 427.027789 343.372935
L 432.151756 346.170545
L 437.275723 348.351339
L 442.39969 350.026107
L 447.523657 351.293392
L 452.647624 352.238394
L 457.771591 352.932911
L 462.895558 353.43603
L 468.019525 353.795315
L 473.143492 354.048259
L 478.267459 354.223834
L 483.391426 354.344
L 488.515393 354.425098
L 493.63936 354.47907
L 498.763326 354.514494
L 503.887293 354.537424
L 509.01126 354.552063
L 514.135227 354.561281
L 519.259194 354.567005
L 524.383161 354.570513
L 529.507128 354.572632
L 534.631095 354.573896
L 539.755062 354.574639
L 544.879029 354.57507
L 550.002996 354.575317
L 555.126963 354.575456
L 560.25093 354.575533
L 565.374897 354.575576
L 570.498864 354.575599
" clip-path="url(#p8142608ea3)" style="fill: none; stroke-dasharray: 7.4,3.2; stroke-dashoffset: 0; stroke: #000000; stroke-width: 2"/>
   </g>
   <g id="patch_103">
    <path d="M 37.8625 354.575625
L 37.8625 21.935625
" style="fill: none; stroke: #cccccc; stroke-linejoin: miter; stroke-linecap: square"/>
   </g>
   <g id="patch_104">
    <path d="M 595.8625 354.575625
L 595.8625 21.935625
" style="fill: none; stroke: #cccccc; stroke-linejoin: miter; stroke-linecap: square"/>
   </g>
   <g id="patch_105">
    <path d="M 37.8625 354.575625
L 595.8625 354.575625
" style="fill: none; stroke: #cccccc; stroke-linejoin: miter; stroke-linecap: square"/>
   </g>
   <g id="patch_106">
    <path d="M 37.8625 21.935625
L 595.8625 21.935625
" style="fill: none; stroke: #cccccc; stroke-linejoin: miter; stroke-linecap: square"/>
   </g>
   <g id="text_21">
    <!-- Convergence to Normal Distribution (CLT) -->
    <g style="fill: #262626" transform="translate(205.271875 15.935625) scale(0.12 -0.12)">
     <defs>
      <path id="ArialMT-43" d="M 3763 1606
L 4369 1453
Q 4178 706 3683 314
Q 3188 -78 2472 -78
Q 1731 -78 1267 223
Q 803 525 561 1097
Q 319 1669 319 2325
Q 319 3041 592 3573
Q 866 4106 1370 4382
Q 1875 4659 2481 4659
Q 3169 4659 3637 4309
Q 4106 3959 4291 3325
L 3694 3184
Q 3534 3684 3231 3912
Q 2928 4141 2469 4141
Q 1941 4141 1586 3887
Q 1231 3634 1087 3207
Q 944 2781 944 2328
Q 944 1744 1114 1308
Q 1284 872 1643 656
Q 2003 441 2422 441
Q 2931 441 3284 734
Q 3638 1028 3763 1606
z
" transform="scale(0.015625)"/>
      <path id="ArialMT-6f" d="M 213 1659
Q 213 2581 725 3025
Q 1153 3394 1769 3394
Q 2453 3394 2887 2945
Q 3322 2497 3322 1706
Q 3322 1066 3130 698
Q 2938 331 2570 128
Q 2203 -75 1769 -75
Q 1072 -75 642 372
Q 213 819 213 1659
z
M 791 1659
Q 791 1022 1069 705
Q 1347 388 1769 388
Q 2188 388 2466 706
Q 2744 1025 2744 1678
Q 2744 2294 2464 2611
Q 2184 2928 1769 2928
Q 1347 2928 1069 2612
Q 791 2297 791 1659
z
" transform="scale(0.015625)"/>
      <path id="ArialMT-76" d="M 1344 0
L 81 3319
L 675 3319
L 1388 1331
Q 1503 1009 1600 663
Q 1675 925 1809 1294
L 2547 3319
L 3125 3319
L 1869 0
L 1344 0
z
" transform="scale(0.015625)"/>
      <path id="ArialMT-72" d="M 416 0
L 416 3319
L 922 3319
L 922 2816
Q 1116 3169 1280 3281
Q 1444 3394 1641 3394
Q 1925 3394 2219 3213
L 2025 2691
Q 1819 2813 1613 2813
Q 1428 2813 1281 2702
Q 1134 2591 1072 2394
Q 978 2094 978 1738
L 978 0
L 416 0
z
" transform="scale(0.015625)"/>
      <path id="ArialMT-67" d="M 319 -275
L 866 -356
Q 900 -609 1056 -725
Q 1266 -881 1628 -881
Q 2019 -881 2231 -725
Q 2444 -569 2519 -288
Q 2563 -116 2559 434
Q 2191 0 1641 0
Q 956 0 581 494
Q 206 988 206 1678
Q 206 2153 378 2554
Q 550 2956 876 3175
Q 1203 3394 1644 3394
Q 2231 3394 2613 2919
L 2613 3319
L 3131 3319
L 3131 450
Q 3131 -325 2973 -648
Q 2816 -972 2473 -1159
Q 2131 -1347 1631 -1347
Q 1038 -1347 672 -1080
Q 306 -813 319 -275
z
M 784 1719
Q 784 1066 1043 766
Q 1303 466 1694 466
Q 2081 466 2343 764
Q 2606 1063 2606 1700
Q 2606 2309 2336 2618
Q 2066 2928 1684 2928
Q 1309 2928 1046 2623
Q 784 2319 784 1719
z
" transform="scale(0.015625)"/>
      <path id="ArialMT-63" d="M 2588 1216
L 3141 1144
Q 3050 572 2676 248
Q 2303 -75 1759 -75
Q 1078 -75 664 370
Q 250 816 250 1647
Q 250 2184 428 2587
Q 606 2991 970 3192
Q 1334 3394 1763 3394
Q 2303 3394 2647 3120
Q 2991 2847 3088 2344
L 2541 2259
Q 2463 2594 2264 2762
Q 2066 2931 1784 2931
Q 1359 2931 1093 2626
Q 828 2322 828 1663
Q 828 994 1084 691
Q 1341 388 1753 388
Q 2084 388 2306 591
Q 2528 794 2588 1216
z
" transform="scale(0.015625)"/>
      <path id="ArialMT-4e" d="M 488 0
L 488 4581
L 1109 4581
L 3516 984
L 3516 4581
L 4097 4581
L 4097 0
L 3475 0
L 1069 3600
L 1069 0
L 488 0
z
" transform="scale(0.015625)"/>
      <path id="ArialMT-62" d="M 941 0
L 419 0
L 419 4581
L 981 4581
L 981 2947
Q 1338 3394 1891 3394
Q 2197 3394 2470 3270
Q 2744 3147 2920 2923
Q 3097 2700 3197 2384
Q 3297 2069 3297 1709
Q 3297 856 2875 390
Q 2453 -75 1863 -75
Q 1275 -75 941 416
L 941 0
z
M 934 1684
Q 934 1088 1097 822
Q 1363 388 1816 388
Q 2184 388 2453 708
Q 2722 1028 2722 1663
Q 2722 2313 2464 2622
Q 2206 2931 1841 2931
Q 1472 2931 1203 2611
Q 934 2291 934 1684
z
" transform="scale(0.015625)"/>
      <path id="ArialMT-28" d="M 1497 -1347
Q 1031 -759 709 28
Q 388 816 388 1659
Q 388 2403 628 3084
Q 909 3875 1497 4659
L 1900 4659
Q 1522 4009 1400 3731
Q 1209 3300 1100 2831
Q 966 2247 966 1656
Q 966 153 1900 -1347
L 1497 -1347
z
" transform="scale(0.015625)"/>
      <path id="ArialMT-4c" d="M 469 0
L 469 4581
L 1075 4581
L 1075 541
L 3331 541
L 3331 0
L 469 0
z
" transform="scale(0.015625)"/>
      <path id="ArialMT-54" d="M 1659 0
L 1659 4041
L 150 4041
L 150 4581
L 3781 4581
L 3781 4041
L 2266 4041
L 2266 0
L 1659 0
z
" transform="scale(0.015625)"/>
      <path id="ArialMT-29" d="M 791 -1347
L 388 -1347
Q 1322 153 1322 1656
Q 1322 2244 1188 2822
Q 1081 3291 891 3722
Q 769 4003 388 4659
L 791 4659
Q 1378 3875 1659 3084
Q 1900 2403 1900 1659
Q 1900 816 1576 28
Q 1253 -759 791 -1347
z
" transform="scale(0.015625)"/>
     </defs>
     <use xlink:href="#ArialMT-43"/>
     <use xlink:href="#ArialMT-6f" transform="translate(72.216797 0)"/>
     <use xlink:href="#ArialMT-6e" transform="translate(127.832031 0)"/>
     <use xlink:href="#ArialMT-76" transform="translate(183.447266 0)"/>
     <use xlink:href="#ArialMT-65" transform="translate(233.447266 0)"/>
     <use xlink:href="#ArialMT-72" transform="translate(289.0625 0)"/>
     <use xlink:href="#ArialMT-67" transform="translate(322.363281 0)"/>
     <use xlink:href="#ArialMT-65" transform="translate(377.978516 0)"/>
     <use xlink:href="#ArialMT-6e" transform="translate(433.59375 0)"/>
     <use xlink:href="#ArialMT-63" transform="translate(489.208984 0)"/>
     <use xlink:href="#ArialMT-65" transform="translate(539.208984 0)"/>
     <use xlink:href="#ArialMT-20" transform="translate(594.824219 0)"/>
     <use xlink:href="#ArialMT-74" transform="translate(622.607422 0)"/>
     <use xlink:href="#ArialMT-6f" transform="translate(650.390625 0)"/>
     <use xlink:href="#ArialMT-20" transform="translate(706.005859 0)"/>
     <use xlink:href="#ArialMT-4e" transform="translate(733.789062 0)"/>
     <use xlink:href="#ArialMT-6f" transform="translate(806.005859 0)"/>
     <use xlink:href="#ArialMT-72" transform="translate(861.621094 0)"/>
     <use xlink:href="#ArialMT-6d" transform="translate(894.921875 0)"/>
     <use xlink:href="#ArialMT-61" transform="translate(978.222656 0)"/>
     <use xlink:href="#ArialMT-6c" transform="translate(1033.837891 0)"/>
     <use xlink:href="#ArialMT-20" transform="translate(1056.054688 0)"/>
     <use xlink:href="#ArialMT-44" transform="translate(1083.837891 0)"/>
     <use xlink:href="#ArialMT-69" transform="translate(1156.054688 0)"/>
     <use xlink:href="#ArialMT-73" transform="translate(1178.271484 0)"/>
     <use xlink:href="#ArialMT-74" transform="translate(1228.271484 0)"/>
     <use xlink:href="#ArialMT-72" transform="translate(1256.054688 0)"/>
     <use xlink:href="#ArialMT-69" transform="translate(1289.355469 0)"/>
     <use xlink:href="#ArialMT-62" transform="translate(1311.572266 0)"/>
     <use xlink:href="#ArialMT-75" transform="translate(1367.1875 0)"/>
     <use xlink:href="#ArialMT-74" transform="translate(1422.802734 0)"/>
     <use xlink:href="#ArialMT-69" transform="translate(1450.585938 0)"/>
     <use xlink:href="#ArialMT-6f" transform="translate(1472.802734 0)"/>
     <use xlink:href="#ArialMT-6e" transform="translate(1528.417969 0)"/>
     <use xlink:href="#ArialMT-20" transform="translate(1584.033203 0)"/>
     <use xlink:href="#ArialMT-28" transform="translate(1611.816406 0)"/>
     <use xlink:href="#ArialMT-43" transform="translate(1645.117188 0)"/>
     <use xlink:href="#ArialMT-4c" transform="translate(1717.333984 0)"/>
     <use xlink:href="#ArialMT-54" transform="translate(1765.574219 0)"/>
     <use xlink:href="#ArialMT-29" transform="translate(1826.658203 0)"/>
    </g>
   </g>
   <g id="legend_1">
    <g id="patch_107">
     <path d="M 438.8625 38.235625
L 458.8625 38.235625
L 458.8625 31.235625
L 438.8625 31.235625
z
" style="fill: #ffa500; opacity: 0.5"/>
    </g>
    <g id="text_22">
     <!-- $Z_3$ (Sum of 3) -->
     <g style="fill: #262626" transform="translate(466.8625 38.235625) scale(0.1 -0.1)">
      <defs>
       <path id="DejaVuSans-Oblique-5a" d="M 838 4666
L 4500 4666
L 4409 4184
L 794 531
L 3769 531
L 3669 0
L -141 0
L -50 481
L 3566 4134
L 738 4134
L 838 4666
z
" transform="scale(0.015625)"/>
       <path id="DejaVuSans-33" d="M 2597 2516
Q 3050 2419 3304 2112
Q 3559 1806 3559 1356
Q 3559 666 3084 287
Q 2609 -91 1734 -91
Q 1441 -91 1130 -33
Q 819 25 488 141
L 488 750
Q 750 597 1062 519
Q 1375 441 1716 441
Q 2309 441 2620 675
Q 2931 909 2931 1356
Q 2931 1769 2642 2001
Q 2353 2234 1838 2234
L 1294 2234
L 1294 2753
L 1863 2753
Q 2328 2753 2575 2939
Q 2822 3125 2822 3475
Q 2822 3834 2567 4026
Q 2313 4219 1838 4219
Q 1578 4219 1281 4162
Q 984 4106 628 3988
L 628 4550
Q 988 4650 1302 4700
Q 1616 4750 1894 4750
Q 2613 4750 3031 4423
Q 3450 4097 3450 3541
Q 3450 3153 3228 2886
Q 3006 2619 2597 2516
z
" transform="scale(0.015625)"/>
       <path id="ArialMT-66" d="M 556 0
L 556 2881
L 59 2881
L 59 3319
L 556 3319
L 556 3672
Q 556 4006 616 4169
Q 697 4388 901 4523
Q 1106 4659 1475 4659
Q 1713 4659 2000 4603
L 1916 4113
Q 1741 4144 1584 4144
Q 1328 4144 1222 4034
Q 1116 3925 1116 3625
L 1116 3319
L 1763 3319
L 1763 2881
L 1116 2881
L 1116 0
L 556 0
z
" transform="scale(0.015625)"/>
      </defs>
      <use xlink:href="#DejaVuSans-Oblique-5a" transform="translate(0 0.09375)"/>
      <use xlink:href="#DejaVuSans-33" transform="translate(68.505859 -16.3125) scale(0.7)"/>
      <use xlink:href="#ArialMT-20" transform="translate(115.776367 0.09375)"/>
      <use xlink:href="#ArialMT-28" transform="translate(143.55957 0.09375)"/>
      <use xlink:href="#ArialMT-53" transform="translate(176.860352 0.09375)"/>
      <use xlink:href="#ArialMT-75" transform="translate(243.55957 0.09375)"/>
      <use xlink:href="#ArialMT-6d" transform="translate(299.174805 0.09375)"/>
      <use xlink:href="#ArialMT-20" transform="translate(382.475586 0.09375)"/>
      <use xlink:href="#ArialMT-6f" transform="translate(410.258789 0.09375)"/>
      <use xlink:href="#ArialMT-66" transform="translate(465.874023 0.09375)"/>
      <use xlink:href="#ArialMT-20" transform="translate(493.657227 0.09375)"/>
      <use xlink:href="#ArialMT-33" transform="translate(521.44043 0.09375)"/>
      <use xlink:href="#ArialMT-29" transform="translate(577.055664 0.09375)"/>
     </g>
    </g>
    <g id="patch_108">
     <path d="M 438.8625 52.735625
L 458.8625 52.735625
L 458.8625 45.735625
L 438.8625 45.735625
z
" style="fill: #800080; opacity: 0.5"/>
    </g>
    <g id="text_23">
     <!-- $Z_6$ (Sum of 6) -->
     <g style="fill: #262626" transform="translate(466.8625 52.735625) scale(0.1 -0.1)">
      <defs>
       <path id="DejaVuSans-36" d="M 2113 2584
Q 1688 2584 1439 2293
Q 1191 2003 1191 1497
Q 1191 994 1439 701
Q 1688 409 2113 409
Q 2538 409 2786 701
Q 3034 994 3034 1497
Q 3034 2003 2786 2293
Q 2538 2584 2113 2584
z
M 3366 4563
L 3366 3988
Q 3128 4100 2886 4159
Q 2644 4219 2406 4219
Q 1781 4219 1451 3797
Q 1122 3375 1075 2522
Q 1259 2794 1537 2939
Q 1816 3084 2150 3084
Q 2853 3084 3261 2657
Q 3669 2231 3669 1497
Q 3669 778 3244 343
Q 2819 -91 2113 -91
Q 1303 -91 875 529
Q 447 1150 447 2328
Q 447 3434 972 4092
Q 1497 4750 2381 4750
Q 2619 4750 2861 4703
Q 3103 4656 3366 4563
z
" transform="scale(0.015625)"/>
      </defs>
      <use xlink:href="#DejaVuSans-Oblique-5a" transform="translate(0 0.09375)"/>
      <use xlink:href="#DejaVuSans-36" transform="translate(68.505859 -16.3125) scale(0.7)"/>
      <use xlink:href="#ArialMT-20" transform="translate(115.776367 0.09375)"/>
      <use xlink:href="#ArialMT-28" transform="translate(143.55957 0.09375)"/>
      <use xlink:href="#ArialMT-53" transform="translate(176.860352 0.09375)"/>
      <use xlink:href="#ArialMT-75" transform="translate(243.55957 0.09375)"/>
      <use xlink:href="#ArialMT-6d" transform="translate(299.174805 0.09375)"/>
      <use xlink:href="#ArialMT-20" transform="translate(382.475586 0.09375)"/>
      <use xlink:href="#ArialMT-6f" transform="translate(410.258789 0.09375)"/>
      <use xlink:href="#ArialMT-66" transform="translate(465.874023 0.09375)"/>
      <use xlink:href="#ArialMT-20" transform="translate(493.657227 0.09375)"/>
      <use xlink:href="#ArialMT-36" transform="translate(521.44043 0.09375)"/>
      <use xlink:href="#ArialMT-29" transform="translate(577.055664 0.09375)"/>
     </g>
    </g>
    <g id="line2d_38">
     <path d="M 438.8625 63.735625
L 448.8625 63.735625
L 458.8625 63.735625
" style="fill: none; stroke-dasharray: 7.4,3.2; stroke-dashoffset: 0; stroke: #000000; stroke-width: 2"/>
    </g>
    <g id="text_24">
     <!-- Normal Approximation ($Z_6$) -->
     <g style="fill: #262626" transform="translate(466.8625 67.235625) scale(0.1 -0.1)">
      <defs>
       <path id="ArialMT-41" d="M -9 0
L 1750 4581
L 2403 4581
L 4278 0
L 3588 0
L 3053 1388
L 1138 1388
L 634 0
L -9 0
z
M 1313 1881
L 2866 1881
L 2388 3150
Q 2169 3728 2063 4100
Q 1975 3659 1816 3225
L 1313 1881
z
" transform="scale(0.015625)"/>
       <path id="ArialMT-70" d="M 422 -1272
L 422 3319
L 934 3319
L 934 2888
Q 1116 3141 1344 3267
Q 1572 3394 1897 3394
Q 2322 3394 2647 3175
Q 2972 2956 3137 2557
Q 3303 2159 3303 1684
Q 3303 1175 3120 767
Q 2938 359 2589 142
Q 2241 -75 1856 -75
Q 1575 -75 1351 44
Q 1128 163 984 344
L 984 -1272
L 422 -1272
z
M 931 1641
Q 931 1000 1190 694
Q 1450 388 1819 388
Q 2194 388 2461 705
Q 2728 1022 2728 1688
Q 2728 2322 2467 2637
Q 2206 2953 1844 2953
Q 1484 2953 1207 2617
Q 931 2281 931 1641
z
" transform="scale(0.015625)"/>
       <path id="ArialMT-78" d="M 47 0
L 1259 1725
L 138 3319
L 841 3319
L 1350 2541
Q 1494 2319 1581 2169
Q 1719 2375 1834 2534
L 2394 3319
L 3066 3319
L 1919 1756
L 3153 0
L 2463 0
L 1781 1031
L 1600 1309
L 728 0
L 47 0
z
" transform="scale(0.015625)"/>
      </defs>
      <use xlink:href="#ArialMT-4e" transform="translate(0 0.09375)"/>
      <use xlink:href="#ArialMT-6f" transform="translate(72.216797 0.09375)"/>
      <use xlink:href="#ArialMT-72" transform="translate(127.832031 0.09375)"/>
      <use xlink:href="#ArialMT-6d" transform="translate(161.132812 0.09375)"/>
      <use xlink:href="#ArialMT-61" transform="translate(244.433594 0.09375)"/>
      <use xlink:href="#ArialMT-6c" transform="translate(300.048828 0.09375)"/>
      <use xlink:href="#ArialMT-20" transform="translate(322.265625 0.09375)"/>
      <use xlink:href="#ArialMT-41" transform="translate(350.048828 0.09375)"/>
      <use xlink:href="#ArialMT-70" transform="translate(416.748047 0.09375)"/>
      <use xlink:href="#ArialMT-70" transform="translate(472.363281 0.09375)"/>
      <use xlink:href="#ArialMT-72" transform="translate(527.978516 0.09375)"/>
      <use xlink:href="#ArialMT-6f" transform="translate(561.279297 0.09375)"/>
      <use xlink:href="#ArialMT-78" transform="translate(616.894531 0.09375)"/>
      <use xlink:href="#ArialMT-69" transform="translate(666.894531 0.09375)"/>
      <use xlink:href="#ArialMT-6d" transform="translate(689.111328 0.09375)"/>
      <use xlink:href="#ArialMT-61" transform="translate(772.412109 0.09375)"/>
      <use xlink:href="#ArialMT-74" transform="translate(828.027344 0.09375)"/>
      <use xlink:href="#ArialMT-69" transform="translate(855.810547 0.09375)"/>
      <use xlink:href="#ArialMT-6f" transform="translate(878.027344 0.09375)"/>
      <use xlink:href="#ArialMT-6e" transform="translate(933.642578 0.09375)"/>
      <use xlink:href="#ArialMT-20" transform="translate(989.257812 0.09375)"/>
      <use xlink:href="#ArialMT-28" transform="translate(1017.041016 0.09375)"/>
      <use xlink:href="#DejaVuSans-Oblique-5a" transform="translate(1050.341797 0.09375)"/>
      <use xlink:href="#DejaVuSans-36" transform="translate(1118.847656 -16.3125) scale(0.7)"/>
      <use xlink:href="#ArialMT-29" transform="translate(1166.118164 0.09375)"/>
     </g>
    </g>
   </g>
  </g>
 </g>
 <defs>
  <clipPath id="p8142608ea3">
   <rect x="37.8625" y="21.935625" width="558" height="332.64"/>
  </clipPath>
 </defs>
</svg>
